<?xml version="1.0" encoding="UTF-8" standalone="no"?>
<!DOCTYPE svg PUBLIC "-//W3C//DTD SVG 1.1//EN"
 "http://www.w3.org/Graphics/SVG/1.1/DTD/svg11.dtd">
<!-- Generated by graphviz version 2.40.1 (20161225.0304)
 -->
<!-- Title: dependencies Pages: 1 -->
<svg width="1058pt" height="284pt"
 viewBox="0.00 0.00 1058.00 284.00" xmlns="http://www.w3.org/2000/svg" xmlns:xlink="http://www.w3.org/1999/xlink">
<g id="graph0" class="graph" transform="scale(1 1) rotate(0) translate(4 280)">
<title>dependencies</title>
<polygon fill="#ffffff" stroke="transparent" points="-4,4 -4,-280 1054,-280 1054,4 -4,4"/>
<text text-anchor="start" x="504.0091" y="-42.4" font-family="sans-serif" font-weight="bold" font-size="14.00" fill="#000000">Legend</text>
<polygon fill="#ffffb3" stroke="transparent" points="291,-10 291,-30 311,-30 311,-10 291,-10"/>
<text text-anchor="start" x="314.629" y="-15.4" font-family="sans-serif" font-size="14.00" fill="#000000"> &#160;Declarations</text>
<polygon fill="#8dd3c7" stroke="transparent" points="404,-10 404,-30 424,-30 424,-10 404,-10"/>
<text text-anchor="start" x="427.7251" y="-15.4" font-family="sans-serif" font-size="14.00" fill="#000000"> &#160;Module</text>
<polygon fill="#80b1d3" stroke="transparent" points="490,-10 490,-30 510,-30 510,-10 490,-10"/>
<text text-anchor="start" x="513.7812" y="-15.4" font-family="sans-serif" font-size="14.00" fill="#000000"> &#160;Bootstrap</text>
<polygon fill="#fdb462" stroke="transparent" points="587,-10 587,-30 607,-30 607,-10 587,-10"/>
<text text-anchor="start" x="610.6732" y="-15.4" font-family="sans-serif" font-size="14.00" fill="#000000"> &#160;Providers</text>
<polygon fill="#fb8072" stroke="transparent" points="683,-10 683,-30 703,-30 703,-10 683,-10"/>
<text text-anchor="start" x="706.7258" y="-15.4" font-family="sans-serif" font-size="14.00" fill="#000000"> &#160;Exports</text>
<g id="clust1" class="cluster">
<title>cluster_SharedModule</title>
<polygon fill="none" stroke="#000000" stroke-dasharray="1,5" points="8,-70 8,-268 1042,-268 1042,-70 8,-70"/>
</g>
<g id="clust2" class="cluster">
<title>cluster_SharedModule_declarations</title>
<polygon fill="none" stroke="#000000" points="426,-78 426,-130 1034,-130 1034,-78 426,-78"/>
</g>
<g id="clust8" class="cluster">
<title>cluster_SharedModule_imports</title>
<polygon fill="none" stroke="#000000" points="16,-78 16,-130 418,-130 418,-78 16,-78"/>
</g>
<g id="clust9" class="cluster">
<title>cluster_SharedModule_exports</title>
<polygon fill="none" stroke="#000000" points="70,-208 70,-260 980,-260 980,-208 70,-208"/>
</g>
<!-- TotalPipe -->
<g id="node1" class="node">
<title>TotalPipe</title>
<polygon fill="#ffffb3" stroke="#000000" points="1026.4376,-122 955.5624,-122 955.5624,-86 1026.4376,-86 1026.4376,-122"/>
<text text-anchor="middle" x="991" y="-99.8" font-family="Times,serif" font-size="14.00" fill="#000000">TotalPipe</text>
</g>
<!-- SharedModule -->
<g id="node6" class="node">
<title>SharedModule</title>
<polygon fill="#8dd3c7" stroke="#000000" points="613.4231,-187 610.4231,-191 589.4231,-191 586.4231,-187 514.5769,-187 514.5769,-151 613.4231,-151 613.4231,-187"/>
<text text-anchor="middle" x="564" y="-164.8" font-family="Times,serif" font-size="14.00" fill="#000000">SharedModule</text>
</g>
<!-- TotalPipe&#45;&gt;SharedModule -->
<g id="edge1" class="edge">
<title>TotalPipe&#45;&gt;SharedModule</title>
<path fill="none" stroke="#000000" d="M963.875,-122.2222C963.875,-140.8285 963.875,-167 963.875,-167 963.875,-167 623.4336,-167 623.4336,-167"/>
<polygon fill="#000000" stroke="#000000" points="623.4336,-163.5001 613.4336,-167 623.4335,-170.5001 623.4336,-163.5001"/>
</g>
<!-- TableauComponent -->
<g id="node2" class="node">
<title>TableauComponent</title>
<polygon fill="#ffffb3" stroke="#000000" points="938.4201,-122 811.5799,-122 811.5799,-86 938.4201,-86 938.4201,-122"/>
<text text-anchor="middle" x="875" y="-99.8" font-family="Times,serif" font-size="14.00" fill="#000000">TableauComponent</text>
</g>
<!-- TableauComponent&#45;&gt;SharedModule -->
<g id="edge2" class="edge">
<title>TableauComponent&#45;&gt;SharedModule</title>
<path fill="none" stroke="#000000" d="M845.875,-122.0336C845.875,-139.0597 845.875,-162 845.875,-162 845.875,-162 623.4214,-162 623.4214,-162"/>
<polygon fill="#000000" stroke="#000000" points="623.4215,-158.5001 613.4214,-162 623.4214,-165.5001 623.4215,-158.5001"/>
</g>
<!-- StateDirective -->
<g id="node3" class="node">
<title>StateDirective</title>
<polygon fill="#ffffb3" stroke="#000000" points="794.0758,-122 697.9242,-122 697.9242,-86 794.0758,-86 794.0758,-122"/>
<text text-anchor="middle" x="746" y="-99.8" font-family="Times,serif" font-size="14.00" fill="#000000">StateDirective</text>
</g>
<!-- StateDirective&#45;&gt;SharedModule -->
<g id="edge3" class="edge">
<title>StateDirective&#45;&gt;SharedModule</title>
<path fill="none" stroke="#000000" d="M714.875,-122.2396C714.875,-137.5706 714.875,-157 714.875,-157 714.875,-157 623.4021,-157 623.4021,-157"/>
<polygon fill="#000000" stroke="#000000" points="623.4022,-153.5001 613.4021,-157 623.4021,-160.5001 623.4022,-153.5001"/>
</g>
<!-- ActifDirective -->
<g id="node4" class="node">
<title>ActifDirective</title>
<polygon fill="#ffffb3" stroke="#000000" points="680.3459,-122 583.6541,-122 583.6541,-86 680.3459,-86 680.3459,-122"/>
<text text-anchor="middle" x="632" y="-99.8" font-family="Times,serif" font-size="14.00" fill="#000000">ActifDirective</text>
</g>
<!-- ActifDirective&#45;&gt;SharedModule -->
<g id="edge4" class="edge">
<title>ActifDirective&#45;&gt;SharedModule</title>
<path fill="none" stroke="#000000" d="M598.3941,-122.1061C598.3941,-122.1061 598.3941,-140.991 598.3941,-140.991"/>
<polygon fill="#000000" stroke="#000000" points="594.8942,-140.9909 598.3941,-150.991 601.8942,-140.991 594.8942,-140.9909"/>
</g>
<!-- AddRowComponent -->
<g id="node5" class="node">
<title>AddRowComponent</title>
<polygon fill="#ffffb3" stroke="#000000" points="565.8823,-122 434.1177,-122 434.1177,-86 565.8823,-86 565.8823,-122"/>
<text text-anchor="middle" x="500" y="-99.8" font-family="Times,serif" font-size="14.00" fill="#000000">AddRowComponent</text>
</g>
<!-- AddRowComponent&#45;&gt;SharedModule -->
<g id="edge5" class="edge">
<title>AddRowComponent&#45;&gt;SharedModule</title>
<path fill="none" stroke="#000000" d="M540.365,-122.1061C540.365,-122.1061 540.365,-140.991 540.365,-140.991"/>
<polygon fill="#000000" stroke="#000000" points="536.8651,-140.9909 540.365,-150.991 543.8651,-140.991 536.8651,-140.9909"/>
</g>
<!-- TotalPipe  -->
<g id="node10" class="node">
<title>TotalPipe </title>
<polygon fill="#fb8072" stroke="#000000" points="971.9362,-252 898.0638,-252 898.0638,-216 971.9362,-216 971.9362,-252"/>
<text text-anchor="middle" x="935" y="-229.8" font-family="Times,serif" font-size="14.00" fill="#000000">TotalPipe </text>
</g>
<!-- SharedModule&#45;&gt;TotalPipe  -->
<g id="edge9" class="edge">
<title>SharedModule&#45;&gt;TotalPipe </title>
<path fill="none" stroke="#000000" stroke-dasharray="5,2" d="M613.239,-172C710.5417,-172 918.1208,-172 918.1208,-172 918.1208,-172 918.1208,-205.7333 918.1208,-205.7333"/>
<polygon fill="#000000" stroke="#000000" points="914.6209,-205.7333 918.1208,-215.7333 921.6209,-205.7333 914.6209,-205.7333"/>
</g>
<!-- TableauComponent  -->
<g id="node11" class="node">
<title>TableauComponent </title>
<polygon fill="#fb8072" stroke="#000000" points="879.9194,-252 750.0806,-252 750.0806,-216 879.9194,-216 879.9194,-252"/>
<text text-anchor="middle" x="815" y="-229.8" font-family="Times,serif" font-size="14.00" fill="#000000">TableauComponent </text>
</g>
<!-- SharedModule&#45;&gt;TableauComponent  -->
<g id="edge10" class="edge">
<title>SharedModule&#45;&gt;TableauComponent </title>
<path fill="none" stroke="#000000" stroke-dasharray="5,2" d="M613.3024,-177C674.8223,-177 772.0391,-177 772.0391,-177 772.0391,-177 772.0391,-205.9648 772.0391,-205.9648"/>
<polygon fill="#000000" stroke="#000000" points="768.5392,-205.9648 772.0391,-215.9648 775.5392,-205.9649 768.5392,-205.9648"/>
</g>
<!-- StateDirective  -->
<g id="node12" class="node">
<title>StateDirective </title>
<polygon fill="#fb8072" stroke="#000000" points="731.5767,-252 632.4233,-252 632.4233,-216 731.5767,-216 731.5767,-252"/>
<text text-anchor="middle" x="682" y="-229.8" font-family="Times,serif" font-size="14.00" fill="#000000">StateDirective </text>
</g>
<!-- SharedModule&#45;&gt;StateDirective  -->
<g id="edge11" class="edge">
<title>SharedModule&#45;&gt;StateDirective </title>
<path fill="none" stroke="#000000" stroke-dasharray="5,2" d="M613.4019,-182C635.3511,-182 656.3175,-182 656.3175,-182 656.3175,-182 656.3175,-205.8129 656.3175,-205.8129"/>
<polygon fill="#000000" stroke="#000000" points="652.8176,-205.8129 656.3175,-215.8129 659.8176,-205.813 652.8176,-205.8129"/>
</g>
<!-- ActifDirective  -->
<g id="node13" class="node">
<title>ActifDirective </title>
<polygon fill="#fb8072" stroke="#000000" points="614.3464,-252 513.6536,-252 513.6536,-216 614.3464,-216 614.3464,-252"/>
<text text-anchor="middle" x="564" y="-229.8" font-family="Times,serif" font-size="14.00" fill="#000000">ActifDirective </text>
</g>
<!-- SharedModule&#45;&gt;ActifDirective  -->
<g id="edge12" class="edge">
<title>SharedModule&#45;&gt;ActifDirective </title>
<path fill="none" stroke="#000000" stroke-dasharray="5,2" d="M564,-187.1061C564,-187.1061 564,-205.991 564,-205.991"/>
<polygon fill="#000000" stroke="#000000" points="560.5001,-205.9909 564,-215.991 567.5001,-205.991 560.5001,-205.9909"/>
</g>
<!-- AddRowComponent  -->
<g id="node14" class="node">
<title>AddRowComponent </title>
<polygon fill="#fb8072" stroke="#000000" points="495.8827,-252 360.1173,-252 360.1173,-216 495.8827,-216 495.8827,-252"/>
<text text-anchor="middle" x="428" y="-229.8" font-family="Times,serif" font-size="14.00" fill="#000000">AddRowComponent </text>
</g>
<!-- SharedModule&#45;&gt;AddRowComponent  -->
<g id="edge13" class="edge">
<title>SharedModule&#45;&gt;AddRowComponent </title>
<path fill="none" stroke="#000000" stroke-dasharray="5,2" d="M514.7279,-182C489.8502,-182 464.875,-182 464.875,-182 464.875,-182 464.875,-205.8129 464.875,-205.8129"/>
<polygon fill="#000000" stroke="#000000" points="461.3751,-205.8129 464.875,-215.8129 468.3751,-205.813 461.3751,-205.8129"/>
</g>
<!-- FontAwesomeModule  -->
<g id="node15" class="node">
<title>FontAwesomeModule </title>
<polygon fill="#fb8072" stroke="#000000" points="342.2009,-252 197.7991,-252 197.7991,-216 342.2009,-216 342.2009,-252"/>
<text text-anchor="middle" x="270" y="-229.8" font-family="Times,serif" font-size="14.00" fill="#000000">FontAwesomeModule </text>
</g>
<!-- SharedModule&#45;&gt;FontAwesomeModule  -->
<g id="edge14" class="edge">
<title>SharedModule&#45;&gt;FontAwesomeModule </title>
<path fill="none" stroke="#000000" stroke-dasharray="5,2" d="M514.6752,-177C443.4532,-177 320.2582,-177 320.2582,-177 320.2582,-177 320.2582,-205.9648 320.2582,-205.9648"/>
<polygon fill="#000000" stroke="#000000" points="316.7583,-205.9648 320.2582,-215.9648 323.7583,-205.9649 316.7583,-205.9648"/>
</g>
<!-- RouterModule  -->
<g id="node16" class="node">
<title>RouterModule </title>
<polygon fill="#fb8072" stroke="#000000" points="179.6523,-252 78.3477,-252 78.3477,-216 179.6523,-216 179.6523,-252"/>
<text text-anchor="middle" x="129" y="-229.8" font-family="Times,serif" font-size="14.00" fill="#000000">RouterModule </text>
</g>
<!-- SharedModule&#45;&gt;RouterModule  -->
<g id="edge15" class="edge">
<title>SharedModule&#45;&gt;RouterModule </title>
<path fill="none" stroke="#000000" stroke-dasharray="5,2" d="M514.3989,-172C406.3825,-172 159.4879,-172 159.4879,-172 159.4879,-172 159.4879,-205.7333 159.4879,-205.7333"/>
<polygon fill="#000000" stroke="#000000" points="155.9878,-205.7333 159.4879,-215.7333 162.9878,-205.7333 155.9878,-205.7333"/>
</g>
<!-- CommonModule -->
<g id="node7" class="node">
<title>CommonModule</title>
<polygon fill="#8dd3c7" stroke="#000000" points="409.6681,-122 406.6681,-126 385.6681,-126 382.6681,-122 298.3319,-122 298.3319,-86 409.6681,-86 409.6681,-122"/>
<text text-anchor="middle" x="354" y="-99.8" font-family="Times,serif" font-size="14.00" fill="#000000">CommonModule</text>
</g>
<!-- CommonModule&#45;&gt;SharedModule -->
<g id="edge6" class="edge">
<title>CommonModule&#45;&gt;SharedModule</title>
<path fill="none" stroke="#000000" d="M385.0714,-122.2396C385.0714,-137.5706 385.0714,-157 385.0714,-157 385.0714,-157 504.6333,-157 504.6333,-157"/>
<polygon fill="#000000" stroke="#000000" points="504.6333,-160.5001 514.6333,-157 504.6333,-153.5001 504.6333,-160.5001"/>
</g>
<!-- FontAwesomeModule -->
<g id="node8" class="node">
<title>FontAwesomeModule</title>
<polygon fill="#8dd3c7" stroke="#000000" points="280.7007,-122 277.7007,-126 256.7007,-126 253.7007,-122 139.2993,-122 139.2993,-86 280.7007,-86 280.7007,-122"/>
<text text-anchor="middle" x="210" y="-99.8" font-family="Times,serif" font-size="14.00" fill="#000000">FontAwesomeModule</text>
</g>
<!-- FontAwesomeModule&#45;&gt;SharedModule -->
<g id="edge7" class="edge">
<title>FontAwesomeModule&#45;&gt;SharedModule</title>
<path fill="none" stroke="#000000" d="M239.125,-122.0336C239.125,-139.0597 239.125,-162 239.125,-162 239.125,-162 504.6585,-162 504.6585,-162"/>
<polygon fill="#000000" stroke="#000000" points="504.6585,-165.5001 514.6585,-162 504.6584,-158.5001 504.6585,-165.5001"/>
</g>
<!-- RouterModule -->
<g id="node9" class="node">
<title>RouterModule</title>
<polygon fill="#8dd3c7" stroke="#000000" points="121.6528,-122 118.6528,-126 97.6528,-126 94.6528,-122 24.3472,-122 24.3472,-86 121.6528,-86 121.6528,-122"/>
<text text-anchor="middle" x="73" y="-99.8" font-family="Times,serif" font-size="14.00" fill="#000000">RouterModule</text>
</g>
<!-- RouterModule&#45;&gt;SharedModule -->
<g id="edge8" class="edge">
<title>RouterModule&#45;&gt;SharedModule</title>
<path fill="none" stroke="#000000" d="M100.125,-122.2222C100.125,-140.8285 100.125,-167 100.125,-167 100.125,-167 504.3572,-167 504.3572,-167"/>
<polygon fill="#000000" stroke="#000000" points="504.3573,-170.5001 514.3572,-167 504.3572,-163.5001 504.3573,-170.5001"/>
</g>
</g>
</svg>
