<?xml version="1.0" encoding="UTF-8" standalone="no"?>
<!DOCTYPE svg PUBLIC "-//W3C//DTD SVG 1.1//EN"
 "http://www.w3.org/Graphics/SVG/1.1/DTD/svg11.dtd">
<!-- Generated by graphviz version 2.40.1 (20161225.0304)
 -->
<!-- Title: dependencies Pages: 1 -->
<svg width="1098pt" height="284pt"
 viewBox="0.00 0.00 1098.00 284.00" xmlns="http://www.w3.org/2000/svg" xmlns:xlink="http://www.w3.org/1999/xlink">
<g id="graph0" class="graph" transform="scale(1 1) rotate(0) translate(4 280)">
<title>dependencies</title>
<polygon fill="#ffffff" stroke="transparent" points="-4,4 -4,-280 1094,-280 1094,4 -4,4"/>
<text text-anchor="start" x="524.0091" y="-42.4" font-family="sans-serif" font-weight="bold" font-size="14.00" fill="#000000">Legend</text>
<polygon fill="#ffffb3" stroke="transparent" points="311,-10 311,-30 331,-30 331,-10 311,-10"/>
<text text-anchor="start" x="334.629" y="-15.4" font-family="sans-serif" font-size="14.00" fill="#000000"> &#160;Declarations</text>
<polygon fill="#8dd3c7" stroke="transparent" points="424,-10 424,-30 444,-30 444,-10 424,-10"/>
<text text-anchor="start" x="447.7251" y="-15.4" font-family="sans-serif" font-size="14.00" fill="#000000"> &#160;Module</text>
<polygon fill="#80b1d3" stroke="transparent" points="510,-10 510,-30 530,-30 530,-10 510,-10"/>
<text text-anchor="start" x="533.7812" y="-15.4" font-family="sans-serif" font-size="14.00" fill="#000000"> &#160;Bootstrap</text>
<polygon fill="#fdb462" stroke="transparent" points="607,-10 607,-30 627,-30 627,-10 607,-10"/>
<text text-anchor="start" x="630.6732" y="-15.4" font-family="sans-serif" font-size="14.00" fill="#000000"> &#160;Providers</text>
<polygon fill="#fb8072" stroke="transparent" points="703,-10 703,-30 723,-30 723,-10 703,-10"/>
<text text-anchor="start" x="726.7258" y="-15.4" font-family="sans-serif" font-size="14.00" fill="#000000"> &#160;Exports</text>
<g id="clust1" class="cluster">
<title>cluster_UiModule</title>
<polygon fill="none" stroke="#000000" stroke-dasharray="1,5" points="8,-70 8,-268 1082,-268 1082,-70 8,-70"/>
</g>
<g id="clust2" class="cluster">
<title>cluster_UiModule_declarations</title>
<polygon fill="none" stroke="#000000" points="564,-78 564,-130 1074,-130 1074,-78 564,-78"/>
</g>
<g id="clust7" class="cluster">
<title>cluster_UiModule_imports</title>
<polygon fill="none" stroke="#000000" points="16,-78 16,-130 556,-130 556,-78 16,-78"/>
</g>
<g id="clust8" class="cluster">
<title>cluster_UiModule_exports</title>
<polygon fill="none" stroke="#000000" points="501,-208 501,-260 615,-260 615,-208 501,-208"/>
</g>
<!-- UiComponent -->
<g id="node1" class="node">
<title>UiComponent</title>
<polygon fill="#ffffb3" stroke="#000000" points="1065.8302,-122 970.1698,-122 970.1698,-86 1065.8302,-86 1065.8302,-122"/>
<text text-anchor="middle" x="1018" y="-99.8" font-family="Times,serif" font-size="14.00" fill="#000000">UiComponent</text>
</g>
<!-- UiModule -->
<g id="node5" class="node">
<title>UiModule</title>
<polygon fill="#8dd3c7" stroke="#000000" points="594.5484,-187 591.5484,-191 570.5484,-191 567.5484,-187 521.4516,-187 521.4516,-151 594.5484,-151 594.5484,-187"/>
<text text-anchor="middle" x="558" y="-164.8" font-family="Times,serif" font-size="14.00" fill="#000000">UiModule</text>
</g>
<!-- UiComponent&#45;&gt;UiModule -->
<g id="edge1" class="edge">
<title>UiComponent&#45;&gt;UiModule</title>
<path fill="none" stroke="#000000" d="M1018,-122.2921C1018,-144.2057 1018,-178 1018,-178 1018,-178 604.8661,-178 604.8661,-178"/>
<polygon fill="#000000" stroke="#000000" points="604.8662,-174.5001 594.8661,-178 604.8661,-181.5001 604.8662,-174.5001"/>
</g>
<!-- FooterComponent -->
<g id="node2" class="node">
<title>FooterComponent</title>
<polygon fill="#ffffb3" stroke="#000000" points="951.8809,-122 834.1191,-122 834.1191,-86 951.8809,-86 951.8809,-122"/>
<text text-anchor="middle" x="893" y="-99.8" font-family="Times,serif" font-size="14.00" fill="#000000">FooterComponent</text>
</g>
<!-- FooterComponent&#45;&gt;UiModule -->
<g id="edge2" class="edge">
<title>FooterComponent&#45;&gt;UiModule</title>
<path fill="none" stroke="#000000" d="M893,-122.1061C893,-141.3391 893,-169 893,-169 893,-169 604.8091,-169 604.8091,-169"/>
<polygon fill="#000000" stroke="#000000" points="604.8092,-165.5001 594.8091,-169 604.8091,-172.5001 604.8092,-165.5001"/>
</g>
<!-- HeaderComponent -->
<g id="node3" class="node">
<title>HeaderComponent</title>
<polygon fill="#ffffb3" stroke="#000000" points="815.7437,-122 694.2563,-122 694.2563,-86 815.7437,-86 815.7437,-122"/>
<text text-anchor="middle" x="755" y="-99.8" font-family="Times,serif" font-size="14.00" fill="#000000">HeaderComponent</text>
</g>
<!-- HeaderComponent&#45;&gt;UiModule -->
<g id="edge3" class="edge">
<title>HeaderComponent&#45;&gt;UiModule</title>
<path fill="none" stroke="#000000" d="M755,-122.027C755,-138.3976 755,-160 755,-160 755,-160 604.5925,-160 604.5925,-160"/>
<polygon fill="#000000" stroke="#000000" points="604.5925,-156.5001 594.5925,-160 604.5925,-163.5001 604.5925,-156.5001"/>
</g>
<!-- NavComponent -->
<g id="node4" class="node">
<title>NavComponent</title>
<polygon fill="#ffffb3" stroke="#000000" points="676.1542,-122 571.8458,-122 571.8458,-86 676.1542,-86 676.1542,-122"/>
<text text-anchor="middle" x="624" y="-99.8" font-family="Times,serif" font-size="14.00" fill="#000000">NavComponent</text>
</g>
<!-- NavComponent&#45;&gt;UiModule -->
<g id="edge4" class="edge">
<title>NavComponent&#45;&gt;UiModule</title>
<path fill="none" stroke="#000000" d="M583.2234,-122.1061C583.2234,-122.1061 583.2234,-140.991 583.2234,-140.991"/>
<polygon fill="#000000" stroke="#000000" points="579.7234,-140.9909 583.2234,-150.991 586.7234,-140.991 579.7234,-140.9909"/>
</g>
<!-- UiComponent  -->
<g id="node10" class="node">
<title>UiComponent </title>
<polygon fill="#fb8072" stroke="#000000" points="607.3297,-252 508.6703,-252 508.6703,-216 607.3297,-216 607.3297,-252"/>
<text text-anchor="middle" x="558" y="-229.8" font-family="Times,serif" font-size="14.00" fill="#000000">UiComponent </text>
</g>
<!-- UiModule&#45;&gt;UiComponent  -->
<g id="edge9" class="edge">
<title>UiModule&#45;&gt;UiComponent </title>
<path fill="none" stroke="#000000" stroke-dasharray="5,2" d="M558,-187.1061C558,-187.1061 558,-205.991 558,-205.991"/>
<polygon fill="#000000" stroke="#000000" points="554.5001,-205.9909 558,-215.991 561.5001,-205.991 554.5001,-205.9909"/>
</g>
<!-- CommonModule -->
<g id="node6" class="node">
<title>CommonModule</title>
<polygon fill="#8dd3c7" stroke="#000000" points="547.6681,-122 544.6681,-126 523.6681,-126 520.6681,-122 436.3319,-122 436.3319,-86 547.6681,-86 547.6681,-122"/>
<text text-anchor="middle" x="492" y="-99.8" font-family="Times,serif" font-size="14.00" fill="#000000">CommonModule</text>
</g>
<!-- CommonModule&#45;&gt;UiModule -->
<g id="edge5" class="edge">
<title>CommonModule&#45;&gt;UiModule</title>
<path fill="none" stroke="#000000" d="M534.5302,-122.1061C534.5302,-122.1061 534.5302,-140.991 534.5302,-140.991"/>
<polygon fill="#000000" stroke="#000000" points="531.0302,-140.9909 534.5302,-150.991 538.0302,-140.991 531.0302,-140.9909"/>
</g>
<!-- FontAwesomeModule -->
<g id="node7" class="node">
<title>FontAwesomeModule</title>
<polygon fill="#8dd3c7" stroke="#000000" points="418.7007,-122 415.7007,-126 394.7007,-126 391.7007,-122 277.2993,-122 277.2993,-86 418.7007,-86 418.7007,-122"/>
<text text-anchor="middle" x="348" y="-99.8" font-family="Times,serif" font-size="14.00" fill="#000000">FontAwesomeModule</text>
</g>
<!-- FontAwesomeModule&#45;&gt;UiModule -->
<g id="edge6" class="edge">
<title>FontAwesomeModule&#45;&gt;UiModule</title>
<path fill="none" stroke="#000000" d="M348,-122.027C348,-138.3976 348,-160 348,-160 348,-160 511.4208,-160 511.4208,-160"/>
<polygon fill="#000000" stroke="#000000" points="511.4208,-163.5001 521.4208,-160 511.4208,-156.5001 511.4208,-163.5001"/>
</g>
<!-- RouterModule -->
<g id="node8" class="node">
<title>RouterModule</title>
<polygon fill="#8dd3c7" stroke="#000000" points="259.6528,-122 256.6528,-126 235.6528,-126 232.6528,-122 162.3472,-122 162.3472,-86 259.6528,-86 259.6528,-122"/>
<text text-anchor="middle" x="211" y="-99.8" font-family="Times,serif" font-size="14.00" fill="#000000">RouterModule</text>
</g>
<!-- RouterModule&#45;&gt;UiModule -->
<g id="edge7" class="edge">
<title>RouterModule&#45;&gt;UiModule</title>
<path fill="none" stroke="#000000" d="M211,-122.1061C211,-141.3391 211,-169 211,-169 211,-169 511.1934,-169 511.1934,-169"/>
<polygon fill="#000000" stroke="#000000" points="511.1935,-172.5001 521.1934,-169 511.1934,-165.5001 511.1935,-172.5001"/>
</g>
<!-- PrestationsModule -->
<g id="node9" class="node">
<title>PrestationsModule</title>
<polygon fill="#8dd3c7" stroke="#000000" points="144.4832,-122 141.4832,-126 120.4832,-126 117.4832,-122 23.5168,-122 23.5168,-86 144.4832,-86 144.4832,-122"/>
<text text-anchor="middle" x="84" y="-99.8" font-family="Times,serif" font-size="14.00" fill="#000000">PrestationsModule</text>
</g>
<!-- PrestationsModule&#45;&gt;UiModule -->
<g id="edge8" class="edge">
<title>PrestationsModule&#45;&gt;UiModule</title>
<path fill="none" stroke="#000000" d="M84,-122.2921C84,-144.2057 84,-178 84,-178 84,-178 511.2004,-178 511.2004,-178"/>
<polygon fill="#000000" stroke="#000000" points="511.2005,-181.5001 521.2004,-178 511.2004,-174.5001 511.2005,-181.5001"/>
</g>
</g>
</svg>
