<?xml version="1.0" encoding="UTF-8" standalone="no"?>
<!DOCTYPE svg PUBLIC "-//W3C//DTD SVG 1.1//EN"
 "http://www.w3.org/Graphics/SVG/1.1/DTD/svg11.dtd">
<!-- Generated by graphviz version 2.40.1 (20161225.0304)
 -->
<!-- Title: dependencies Pages: 1 -->
<svg width="1830pt" height="211pt"
 viewBox="0.00 0.00 1830.00 211.00" xmlns="http://www.w3.org/2000/svg" xmlns:xlink="http://www.w3.org/1999/xlink">
<g id="graph0" class="graph" transform="scale(1 1) rotate(0) translate(4 207)">
<title>dependencies</title>
<polygon fill="#ffffff" stroke="transparent" points="-4,4 -4,-207 1826,-207 1826,4 -4,4"/>
<text text-anchor="start" x="890.0091" y="-42.4" font-family="sans-serif" font-weight="bold" font-size="14.00" fill="#000000">Legend</text>
<polygon fill="#ffffb3" stroke="transparent" points="677,-10 677,-30 697,-30 697,-10 677,-10"/>
<text text-anchor="start" x="700.629" y="-15.4" font-family="sans-serif" font-size="14.00" fill="#000000"> &#160;Declarations</text>
<polygon fill="#8dd3c7" stroke="transparent" points="790,-10 790,-30 810,-30 810,-10 790,-10"/>
<text text-anchor="start" x="813.7251" y="-15.4" font-family="sans-serif" font-size="14.00" fill="#000000"> &#160;Module</text>
<polygon fill="#80b1d3" stroke="transparent" points="876,-10 876,-30 896,-30 896,-10 876,-10"/>
<text text-anchor="start" x="899.7812" y="-15.4" font-family="sans-serif" font-size="14.00" fill="#000000"> &#160;Bootstrap</text>
<polygon fill="#fdb462" stroke="transparent" points="973,-10 973,-30 993,-30 993,-10 973,-10"/>
<text text-anchor="start" x="996.6732" y="-15.4" font-family="sans-serif" font-size="14.00" fill="#000000"> &#160;Providers</text>
<polygon fill="#fb8072" stroke="transparent" points="1069,-10 1069,-30 1089,-30 1089,-10 1069,-10"/>
<text text-anchor="start" x="1092.7258" y="-15.4" font-family="sans-serif" font-size="14.00" fill="#000000"> &#160;Exports</text>
<g id="clust1" class="cluster">
<title>cluster_ClientsModule</title>
<polygon fill="none" stroke="#000000" stroke-dasharray="1,5" points="8,-70 8,-195 1814,-195 1814,-70 8,-70"/>
</g>
<g id="clust2" class="cluster">
<title>cluster_ClientsModule_declarations</title>
<polygon fill="none" stroke="#000000" points="842,-78 842,-130 1806,-130 1806,-78 842,-78"/>
</g>
<g id="clust9" class="cluster">
<title>cluster_ClientsModule_imports</title>
<polygon fill="none" stroke="#000000" points="16,-78 16,-130 834,-130 834,-78 16,-78"/>
</g>
<!-- PageClientsComponent -->
<g id="node1" class="node">
<title>PageClientsComponent</title>
<polygon fill="#ffffb3" stroke="#000000" points="1798.212,-122 1649.788,-122 1649.788,-86 1798.212,-86 1798.212,-122"/>
<text text-anchor="middle" x="1724" y="-99.8" font-family="Times,serif" font-size="14.00" fill="#000000">PageClientsComponent</text>
</g>
<!-- ClientsModule -->
<g id="node7" class="node">
<title>ClientsModule</title>
<polygon fill="#8dd3c7" stroke="#000000" points="895.7176,-187 892.7176,-191 871.7176,-191 868.7176,-187 796.2824,-187 796.2824,-151 895.7176,-151 895.7176,-187"/>
<text text-anchor="middle" x="846" y="-164.8" font-family="Times,serif" font-size="14.00" fill="#000000">ClientsModule</text>
</g>
<!-- PageClientsComponent&#45;&gt;ClientsModule -->
<g id="edge1" class="edge">
<title>PageClientsComponent&#45;&gt;ClientsModule</title>
<path fill="none" stroke="#000000" d="M1724,-122.0908C1724,-145.1328 1724,-182 1724,-182 1724,-182 905.7207,-182 905.7207,-182"/>
<polygon fill="#000000" stroke="#000000" points="905.7208,-178.5001 895.7207,-182 905.7207,-185.5001 905.7208,-178.5001"/>
</g>
<!-- ListClientsComponent -->
<g id="node2" class="node">
<title>ListClientsComponent</title>
<polygon fill="#ffffb3" stroke="#000000" points="1632.2786,-122 1489.7214,-122 1489.7214,-86 1632.2786,-86 1632.2786,-122"/>
<text text-anchor="middle" x="1561" y="-99.8" font-family="Times,serif" font-size="14.00" fill="#000000">ListClientsComponent</text>
</g>
<!-- ListClientsComponent&#45;&gt;ClientsModule -->
<g id="edge2" class="edge">
<title>ListClientsComponent&#45;&gt;ClientsModule</title>
<path fill="none" stroke="#000000" d="M1561,-122.2843C1561,-143.3211 1561,-175 1561,-175 1561,-175 905.7097,-175 905.7097,-175"/>
<polygon fill="#000000" stroke="#000000" points="905.7098,-171.5001 895.7097,-175 905.7097,-178.5001 905.7098,-171.5001"/>
</g>
<!-- ClientComponent -->
<g id="node3" class="node">
<title>ClientComponent</title>
<polygon fill="#ffffb3" stroke="#000000" points="1471.5563,-122 1356.4437,-122 1356.4437,-86 1471.5563,-86 1471.5563,-122"/>
<text text-anchor="middle" x="1414" y="-99.8" font-family="Times,serif" font-size="14.00" fill="#000000">ClientComponent</text>
</g>
<!-- ClientComponent&#45;&gt;ClientsModule -->
<g id="edge3" class="edge">
<title>ClientComponent&#45;&gt;ClientsModule</title>
<path fill="none" stroke="#000000" d="M1414,-122.1061C1414,-141.3391 1414,-169 1414,-169 1414,-169 905.9084,-169 905.9084,-169"/>
<polygon fill="#000000" stroke="#000000" points="905.9084,-165.5001 895.9084,-169 905.9084,-172.5001 905.9084,-165.5001"/>
</g>
<!-- PageAddClientComponent -->
<g id="node4" class="node">
<title>PageAddClientComponent</title>
<polygon fill="#ffffb3" stroke="#000000" points="1338.3738,-122 1171.6262,-122 1171.6262,-86 1338.3738,-86 1338.3738,-122"/>
<text text-anchor="middle" x="1255" y="-99.8" font-family="Times,serif" font-size="14.00" fill="#000000">PageAddClientComponent</text>
</g>
<!-- PageAddClientComponent&#45;&gt;ClientsModule -->
<g id="edge4" class="edge">
<title>PageAddClientComponent&#45;&gt;ClientsModule</title>
<path fill="none" stroke="#000000" d="M1255,-122.0225C1255,-139.3734 1255,-163 1255,-163 1255,-163 905.7425,-163 905.7425,-163"/>
<polygon fill="#000000" stroke="#000000" points="905.7426,-159.5001 895.7425,-163 905.7425,-166.5001 905.7426,-159.5001"/>
</g>
<!-- AddClientComponent -->
<g id="node5" class="node">
<title>AddClientComponent</title>
<polygon fill="#ffffb3" stroke="#000000" points="1153.6624,-122 1014.3376,-122 1014.3376,-86 1153.6624,-86 1153.6624,-122"/>
<text text-anchor="middle" x="1084" y="-99.8" font-family="Times,serif" font-size="14.00" fill="#000000">AddClientComponent</text>
</g>
<!-- AddClientComponent&#45;&gt;ClientsModule -->
<g id="edge5" class="edge">
<title>AddClientComponent&#45;&gt;ClientsModule</title>
<path fill="none" stroke="#000000" d="M1084,-122.2396C1084,-137.5706 1084,-157 1084,-157 1084,-157 905.8926,-157 905.8926,-157"/>
<polygon fill="#000000" stroke="#000000" points="905.8926,-153.5001 895.8926,-157 905.8926,-160.5001 905.8926,-153.5001"/>
</g>
<!-- ClientFormComponent -->
<g id="node6" class="node">
<title>ClientFormComponent</title>
<polygon fill="#ffffb3" stroke="#000000" points="995.8892,-122 850.1108,-122 850.1108,-86 995.8892,-86 995.8892,-122"/>
<text text-anchor="middle" x="923" y="-99.8" font-family="Times,serif" font-size="14.00" fill="#000000">ClientFormComponent</text>
</g>
<!-- ClientFormComponent&#45;&gt;ClientsModule -->
<g id="edge6" class="edge">
<title>ClientFormComponent&#45;&gt;ClientsModule</title>
<path fill="none" stroke="#000000" d="M872.8321,-122.1061C872.8321,-122.1061 872.8321,-140.991 872.8321,-140.991"/>
<polygon fill="#000000" stroke="#000000" points="869.3321,-140.9909 872.8321,-150.991 876.3321,-140.991 869.3321,-140.9909"/>
</g>
<!-- CommonModule -->
<g id="node8" class="node">
<title>CommonModule</title>
<polygon fill="#8dd3c7" stroke="#000000" points="825.6681,-122 822.6681,-126 801.6681,-126 798.6681,-122 714.3319,-122 714.3319,-86 825.6681,-86 825.6681,-122"/>
<text text-anchor="middle" x="770" y="-99.8" font-family="Times,serif" font-size="14.00" fill="#000000">CommonModule</text>
</g>
<!-- CommonModule&#45;&gt;ClientsModule -->
<g id="edge7" class="edge">
<title>CommonModule&#45;&gt;ClientsModule</title>
<path fill="none" stroke="#000000" d="M811.1126,-122.1061C811.1126,-122.1061 811.1126,-140.991 811.1126,-140.991"/>
<polygon fill="#000000" stroke="#000000" points="807.6126,-140.9909 811.1126,-150.991 814.6126,-140.991 807.6126,-140.9909"/>
</g>
<!-- ClientsRoutingModule -->
<g id="node9" class="node">
<title>ClientsRoutingModule</title>
<polygon fill="#8dd3c7" stroke="#000000" points="696.3356,-122 693.3356,-126 672.3356,-126 669.3356,-122 551.6644,-122 551.6644,-86 696.3356,-86 696.3356,-122"/>
<text text-anchor="middle" x="624" y="-99.8" font-family="Times,serif" font-size="14.00" fill="#000000">ClientsRoutingModule</text>
</g>
<!-- ClientsRoutingModule&#45;&gt;ClientsModule -->
<g id="edge8" class="edge">
<title>ClientsRoutingModule&#45;&gt;ClientsModule</title>
<path fill="none" stroke="#000000" d="M624,-122.2396C624,-137.5706 624,-157 624,-157 624,-157 786.1789,-157 786.1789,-157"/>
<polygon fill="#000000" stroke="#000000" points="786.1789,-160.5001 796.1789,-157 786.1788,-153.5001 786.1789,-160.5001"/>
</g>
<!-- SharedModule -->
<g id="node10" class="node">
<title>SharedModule</title>
<polygon fill="#8dd3c7" stroke="#000000" points="534.4231,-122 531.4231,-126 510.4231,-126 507.4231,-122 435.5769,-122 435.5769,-86 534.4231,-86 534.4231,-122"/>
<text text-anchor="middle" x="485" y="-99.8" font-family="Times,serif" font-size="14.00" fill="#000000">SharedModule</text>
</g>
<!-- SharedModule&#45;&gt;ClientsModule -->
<g id="edge9" class="edge">
<title>SharedModule&#45;&gt;ClientsModule</title>
<path fill="none" stroke="#000000" d="M485,-122.0225C485,-139.3734 485,-163 485,-163 485,-163 786.1835,-163 786.1835,-163"/>
<polygon fill="#000000" stroke="#000000" points="786.1835,-166.5001 796.1835,-163 786.1835,-159.5001 786.1835,-166.5001"/>
</g>
<!-- TemplatesModule -->
<g id="node11" class="node">
<title>TemplatesModule</title>
<polygon fill="#8dd3c7" stroke="#000000" points="417.8627,-122 414.8627,-126 393.8627,-126 390.8627,-122 300.1373,-122 300.1373,-86 417.8627,-86 417.8627,-122"/>
<text text-anchor="middle" x="359" y="-99.8" font-family="Times,serif" font-size="14.00" fill="#000000">TemplatesModule</text>
</g>
<!-- TemplatesModule&#45;&gt;ClientsModule -->
<g id="edge10" class="edge">
<title>TemplatesModule&#45;&gt;ClientsModule</title>
<path fill="none" stroke="#000000" d="M359,-122.1061C359,-141.3391 359,-169 359,-169 359,-169 786.1711,-169 786.1711,-169"/>
<polygon fill="#000000" stroke="#000000" points="786.1711,-172.5001 796.1711,-169 786.1711,-165.5001 786.1711,-172.5001"/>
</g>
<!-- FormsModule -->
<g id="node12" class="node">
<title>FormsModule</title>
<polygon fill="#8dd3c7" stroke="#000000" points="281.8288,-122 278.8288,-126 257.8288,-126 254.8288,-122 186.1712,-122 186.1712,-86 281.8288,-86 281.8288,-122"/>
<text text-anchor="middle" x="234" y="-99.8" font-family="Times,serif" font-size="14.00" fill="#000000">FormsModule</text>
</g>
<!-- FormsModule&#45;&gt;ClientsModule -->
<g id="edge11" class="edge">
<title>FormsModule&#45;&gt;ClientsModule</title>
<path fill="none" stroke="#000000" d="M234,-122.2843C234,-143.3211 234,-175 234,-175 234,-175 786.177,-175 786.177,-175"/>
<polygon fill="#000000" stroke="#000000" points="786.177,-178.5001 796.177,-175 786.1769,-171.5001 786.177,-178.5001"/>
</g>
<!-- ReactiveFormsModule -->
<g id="node13" class="node">
<title>ReactiveFormsModule</title>
<polygon fill="#8dd3c7" stroke="#000000" points="168.3047,-122 165.3047,-126 144.3047,-126 141.3047,-122 23.6953,-122 23.6953,-86 168.3047,-86 168.3047,-122"/>
<text text-anchor="middle" x="96" y="-99.8" font-family="Times,serif" font-size="14.00" fill="#000000">ReactiveFormsModule</text>
</g>
<!-- ReactiveFormsModule&#45;&gt;ClientsModule -->
<g id="edge12" class="edge">
<title>ReactiveFormsModule&#45;&gt;ClientsModule</title>
<path fill="none" stroke="#000000" d="M96,-122.0908C96,-145.1328 96,-182 96,-182 96,-182 786.2096,-182 786.2096,-182"/>
<polygon fill="#000000" stroke="#000000" points="786.2096,-185.5001 796.2096,-182 786.2095,-178.5001 786.2096,-185.5001"/>
</g>
</g>
</svg>
