<?xml version="1.0" encoding="UTF-8" standalone="no"?>
<!DOCTYPE svg PUBLIC "-//W3C//DTD SVG 1.1//EN"
 "http://www.w3.org/Graphics/SVG/1.1/DTD/svg11.dtd">
<!-- Generated by graphviz version 2.40.1 (20161225.0304)
 -->
<!-- Title: dependencies Pages: 1 -->
<svg width="5255pt" height="360pt"
 viewBox="0.00 0.00 5255.00 360.00" xmlns="http://www.w3.org/2000/svg" xmlns:xlink="http://www.w3.org/1999/xlink">
<g id="graph0" class="graph" transform="scale(1 1) rotate(0) translate(4 356)">
<title>dependencies</title>
<polygon fill="#ffffff" stroke="transparent" points="-4,4 -4,-356 5251,-356 5251,4 -4,4"/>
<text text-anchor="start" x="2602.5091" y="-42.4" font-family="sans-serif" font-weight="bold" font-size="14.00" fill="#000000">Legend</text>
<polygon fill="#ffffb3" stroke="transparent" points="2389.5,-10 2389.5,-30 2409.5,-30 2409.5,-10 2389.5,-10"/>
<text text-anchor="start" x="2413.129" y="-15.4" font-family="sans-serif" font-size="14.00" fill="#000000"> &#160;Declarations</text>
<polygon fill="#8dd3c7" stroke="transparent" points="2502.5,-10 2502.5,-30 2522.5,-30 2522.5,-10 2502.5,-10"/>
<text text-anchor="start" x="2526.2251" y="-15.4" font-family="sans-serif" font-size="14.00" fill="#000000"> &#160;Module</text>
<polygon fill="#80b1d3" stroke="transparent" points="2588.5,-10 2588.5,-30 2608.5,-30 2608.5,-10 2588.5,-10"/>
<text text-anchor="start" x="2612.2812" y="-15.4" font-family="sans-serif" font-size="14.00" fill="#000000"> &#160;Bootstrap</text>
<polygon fill="#fdb462" stroke="transparent" points="2685.5,-10 2685.5,-30 2705.5,-30 2705.5,-10 2685.5,-10"/>
<text text-anchor="start" x="2709.1732" y="-15.4" font-family="sans-serif" font-size="14.00" fill="#000000"> &#160;Providers</text>
<polygon fill="#fb8072" stroke="transparent" points="2781.5,-10 2781.5,-30 2801.5,-30 2801.5,-10 2781.5,-10"/>
<text text-anchor="start" x="2805.2258" y="-15.4" font-family="sans-serif" font-size="14.00" fill="#000000"> &#160;Exports</text>
<g id="clust1" class="cluster">
<title>cluster_AppModule</title>
<polygon fill="none" stroke="#000000" stroke-dasharray="1,5" points="302,-146 302,-344 795,-344 795,-146 302,-146"/>
</g>
<g id="clust2" class="cluster">
<title>cluster_AppModule_declarations</title>
<polygon fill="none" stroke="#000000" points="665,-154 665,-206 787,-206 787,-154 665,-154"/>
</g>
<g id="clust4" class="cluster">
<title>cluster_AppModule_imports</title>
<polygon fill="none" stroke="#000000" points="310,-154 310,-206 657,-206 657,-154 310,-154"/>
</g>
<g id="clust6" class="cluster">
<title>cluster_AppModule_bootstrap</title>
<polygon fill="none" stroke="#000000" points="458,-284 458,-336 582,-336 582,-284 458,-284"/>
</g>
<g id="clust14" class="cluster">
<title>cluster_ClientsModule</title>
<polygon fill="none" stroke="#000000" stroke-dasharray="1,5" points="846,-70 846,-206 1926,-206 1926,-70 846,-70"/>
</g>
<g id="clust15" class="cluster">
<title>cluster_ClientsModule_declarations</title>
<polygon fill="none" stroke="#000000" points="854,-78 854,-130 1498,-130 1498,-78 854,-78"/>
</g>
<g id="clust20" class="cluster">
<title>cluster_ClientsModule_imports</title>
<polygon fill="none" stroke="#000000" points="1506,-78 1506,-130 1918,-130 1918,-78 1506,-78"/>
</g>
<g id="clust30" class="cluster">
<title>cluster_LoginModule</title>
<polygon fill="none" stroke="#000000" stroke-dasharray="1,5" points="664,-70 664,-138 838,-138 838,-70 664,-70"/>
</g>
<g id="clust31" class="cluster">
<title>cluster_LoginModule_declarations</title>
<polygon fill="none" stroke="#000000" points="672,-78 672,-130 830,-130 830,-78 672,-78"/>
</g>
<g id="clust37" class="cluster">
<title>cluster_PageNotFoundModule</title>
<polygon fill="none" stroke="#000000" stroke-dasharray="1,5" points="4829,-70 4829,-206 5239,-206 5239,-70 4829,-70"/>
</g>
<g id="clust38" class="cluster">
<title>cluster_PageNotFoundModule_declarations</title>
<polygon fill="none" stroke="#000000" points="5049,-78 5049,-130 5231,-130 5231,-78 5049,-78"/>
</g>
<g id="clust40" class="cluster">
<title>cluster_PageNotFoundModule_imports</title>
<polygon fill="none" stroke="#000000" points="4837,-78 4837,-130 5041,-130 5041,-78 4837,-78"/>
</g>
<g id="clust50" class="cluster">
<title>cluster_PrestationsModule</title>
<polygon fill="none" stroke="#000000" stroke-dasharray="1,5" points="3884,-70 3884,-206 4821,-206 4821,-70 3884,-70"/>
</g>
<g id="clust51" class="cluster">
<title>cluster_PrestationsModule_declarations</title>
<polygon fill="none" stroke="#000000" points="4082,-78 4082,-130 4813,-130 4813,-78 4082,-78"/>
</g>
<g id="clust56" class="cluster">
<title>cluster_PrestationsModule_imports</title>
<polygon fill="none" stroke="#000000" points="3892,-78 3892,-130 4074,-130 4074,-78 3892,-78"/>
</g>
<g id="clust66" class="cluster">
<title>cluster_SharedModule</title>
<polygon fill="none" stroke="#000000" stroke-dasharray="1,5" points="1934,-146 1934,-214 3193,-214 3193,-146 1934,-146"/>
</g>
<g id="clust67" class="cluster">
<title>cluster_SharedModule_declarations</title>
<polygon fill="none" stroke="#000000" points="2577,-154 2577,-206 3185,-206 3185,-154 2577,-154"/>
</g>
<g id="clust74" class="cluster">
<title>cluster_SharedModule_exports</title>
<polygon fill="none" stroke="#000000" points="1942,-154 1942,-206 2569,-206 2569,-154 1942,-154"/>
</g>
<g id="clust77" class="cluster">
<title>cluster_TemplatesModule</title>
<polygon fill="none" stroke="#000000" stroke-dasharray="1,5" points="3201,-146 3201,-214 3876,-214 3876,-146 3201,-146"/>
</g>
<g id="clust78" class="cluster">
<title>cluster_TemplatesModule_declarations</title>
<polygon fill="none" stroke="#000000" points="3546,-154 3546,-206 3868,-206 3868,-154 3546,-154"/>
</g>
<g id="clust82" class="cluster">
<title>cluster_TemplatesModule_exports</title>
<polygon fill="none" stroke="#000000" points="3209,-154 3209,-206 3538,-206 3538,-154 3209,-154"/>
</g>
<g id="clust85" class="cluster">
<title>cluster_UiModule</title>
<polygon fill="none" stroke="#000000" stroke-dasharray="1,5" points="8,-70 8,-138 656,-138 656,-70 8,-70"/>
</g>
<g id="clust86" class="cluster">
<title>cluster_UiModule_declarations</title>
<polygon fill="none" stroke="#000000" points="138,-78 138,-130 648,-130 648,-78 138,-78"/>
</g>
<g id="clust92" class="cluster">
<title>cluster_UiModule_exports</title>
<polygon fill="none" stroke="#000000" points="16,-78 16,-130 130,-130 130,-78 16,-78"/>
</g>
<!-- AppComponent -->
<g id="node1" class="node">
<title>AppComponent</title>
<polygon fill="#ffffb3" stroke="#000000" points="778.9399,-198 673.0601,-198 673.0601,-162 778.9399,-162 778.9399,-198"/>
<text text-anchor="middle" x="726" y="-175.8" font-family="Times,serif" font-size="14.00" fill="#000000">AppComponent</text>
</g>
<!-- AppModule -->
<g id="node2" class="node">
<title>AppModule</title>
<polygon fill="#8dd3c7" stroke="#000000" points="561.6571,-263 558.6571,-267 537.6571,-267 534.6571,-263 478.3429,-263 478.3429,-227 561.6571,-227 561.6571,-263"/>
<text text-anchor="middle" x="520" y="-240.8" font-family="Times,serif" font-size="14.00" fill="#000000">AppModule</text>
</g>
<!-- AppComponent&#45;&gt;AppModule -->
<g id="edge1" class="edge">
<title>AppComponent&#45;&gt;AppModule</title>
<path fill="none" stroke="#000000" d="M726,-198.1061C726,-217.3391 726,-245 726,-245 726,-245 571.6872,-245 571.6872,-245"/>
<polygon fill="#000000" stroke="#000000" points="571.6872,-241.5001 561.6872,-245 571.6871,-248.5001 571.6872,-241.5001"/>
</g>
<!-- AppComponent  -->
<g id="node6" class="node">
<title>AppComponent </title>
<polygon fill="#80b1d3" stroke="#000000" points="574.439,-328 465.561,-328 465.561,-292 574.439,-292 574.439,-328"/>
<text text-anchor="middle" x="520" y="-305.8" font-family="Times,serif" font-size="14.00" fill="#000000">AppComponent </text>
</g>
<!-- AppModule&#45;&gt;AppComponent  -->
<g id="edge5" class="edge">
<title>AppModule&#45;&gt;AppComponent </title>
<path fill="none" stroke="#000000" stroke-dasharray="1,5" d="M520,-263.1061C520,-263.1061 520,-281.991 520,-281.991"/>
<polygon fill="#000000" stroke="#000000" points="516.5001,-281.9909 520,-291.991 523.5001,-281.991 516.5001,-281.9909"/>
</g>
<!-- AppRoutingModule -->
<g id="node3" class="node">
<title>AppRoutingModule</title>
<polygon fill="#8dd3c7" stroke="#000000" points="649.2744,-198 646.2744,-202 625.2744,-202 622.2744,-198 520.7256,-198 520.7256,-162 649.2744,-162 649.2744,-198"/>
<text text-anchor="middle" x="585" y="-175.8" font-family="Times,serif" font-size="14.00" fill="#000000">AppRoutingModule</text>
</g>
<!-- AppRoutingModule&#45;&gt;AppModule -->
<g id="edge2" class="edge">
<title>AppRoutingModule&#45;&gt;AppModule</title>
<path fill="none" stroke="#000000" d="M541.2206,-198.1061C541.2206,-198.1061 541.2206,-216.991 541.2206,-216.991"/>
<polygon fill="#000000" stroke="#000000" points="537.7206,-216.9909 541.2206,-226.991 544.7206,-216.991 537.7206,-216.9909"/>
</g>
<!-- LoginModule -->
<g id="node4" class="node">
<title>LoginModule</title>
<polygon fill="#8dd3c7" stroke="#000000" points="502.493,-198 499.493,-202 478.493,-202 475.493,-198 409.507,-198 409.507,-162 502.493,-162 502.493,-198"/>
<text text-anchor="middle" x="456" y="-175.8" font-family="Times,serif" font-size="14.00" fill="#000000">LoginModule</text>
</g>
<!-- LoginModule&#45;&gt;AppModule -->
<g id="edge3" class="edge">
<title>LoginModule&#45;&gt;AppModule</title>
<path fill="none" stroke="#000000" d="M490.3342,-198.1061C490.3342,-198.1061 490.3342,-216.991 490.3342,-216.991"/>
<polygon fill="#000000" stroke="#000000" points="486.8342,-216.9909 490.3342,-226.991 493.8342,-216.991 486.8342,-216.9909"/>
</g>
<!-- UiModule -->
<g id="node5" class="node">
<title>UiModule</title>
<polygon fill="#8dd3c7" stroke="#000000" points="391.5484,-198 388.5484,-202 367.5484,-202 364.5484,-198 318.4516,-198 318.4516,-162 391.5484,-162 391.5484,-198"/>
<text text-anchor="middle" x="355" y="-175.8" font-family="Times,serif" font-size="14.00" fill="#000000">UiModule</text>
</g>
<!-- UiModule&#45;&gt;AppModule -->
<g id="edge4" class="edge">
<title>UiModule&#45;&gt;AppModule</title>
<path fill="none" stroke="#000000" d="M355,-198.1061C355,-217.3391 355,-245 355,-245 355,-245 467.9366,-245 467.9366,-245"/>
<polygon fill="#000000" stroke="#000000" points="467.9366,-248.5001 477.9366,-245 467.9366,-241.5001 467.9366,-248.5001"/>
</g>
<!-- UiComponent  -->
<g id="node43" class="node">
<title>UiComponent </title>
<polygon fill="#fb8072" stroke="#000000" points="122.3297,-122 23.6703,-122 23.6703,-86 122.3297,-86 122.3297,-122"/>
<text text-anchor="middle" x="73" y="-99.8" font-family="Times,serif" font-size="14.00" fill="#000000">UiComponent </text>
</g>
<!-- UiModule&#45;&gt;UiComponent  -->
<g id="edge41" class="edge">
<title>UiModule&#45;&gt;UiComponent </title>
<path fill="none" stroke="#000000" stroke-dasharray="5,2" d="M318.4225,-186C242.1202,-186 73,-186 73,-186 73,-186 73,-132.1985 73,-132.1985"/>
<polygon fill="#000000" stroke="#000000" points="76.5001,-132.1984 73,-122.1985 69.5001,-132.1985 76.5001,-132.1984"/>
</g>
<!-- ClientComponent -->
<g id="node7" class="node">
<title>ClientComponent</title>
<polygon fill="#ffffb3" stroke="#000000" points="1489.5563,-122 1374.4437,-122 1374.4437,-86 1489.5563,-86 1489.5563,-122"/>
<text text-anchor="middle" x="1432" y="-99.8" font-family="Times,serif" font-size="14.00" fill="#000000">ClientComponent</text>
</g>
<!-- ClientsModule -->
<g id="node11" class="node">
<title>ClientsModule</title>
<polygon fill="#8dd3c7" stroke="#000000" points="1481.7176,-198 1478.7176,-202 1457.7176,-202 1454.7176,-198 1382.2824,-198 1382.2824,-162 1481.7176,-162 1481.7176,-198"/>
<text text-anchor="middle" x="1432" y="-175.8" font-family="Times,serif" font-size="14.00" fill="#000000">ClientsModule</text>
</g>
<!-- ClientComponent&#45;&gt;ClientsModule -->
<g id="edge6" class="edge">
<title>ClientComponent&#45;&gt;ClientsModule</title>
<path fill="none" stroke="#000000" d="M1432,-122.0109C1432,-122.0109 1432,-151.855 1432,-151.855"/>
<polygon fill="#000000" stroke="#000000" points="1428.5001,-151.8549 1432,-161.855 1435.5001,-151.855 1428.5001,-151.8549"/>
</g>
<!-- ListClientsComponent -->
<g id="node8" class="node">
<title>ListClientsComponent</title>
<polygon fill="#ffffb3" stroke="#000000" points="1356.2786,-122 1213.7214,-122 1213.7214,-86 1356.2786,-86 1356.2786,-122"/>
<text text-anchor="middle" x="1285" y="-99.8" font-family="Times,serif" font-size="14.00" fill="#000000">ListClientsComponent</text>
</g>
<!-- ListClientsComponent&#45;&gt;ClientsModule -->
<g id="edge7" class="edge">
<title>ListClientsComponent&#45;&gt;ClientsModule</title>
<path fill="none" stroke="#000000" d="M1285,-122.308C1285,-142.1455 1285,-171 1285,-171 1285,-171 1372.2325,-171 1372.2325,-171"/>
<polygon fill="#000000" stroke="#000000" points="1372.2325,-174.5001 1382.2325,-171 1372.2325,-167.5001 1372.2325,-174.5001"/>
</g>
<!-- PageAddClientComponent -->
<g id="node9" class="node">
<title>PageAddClientComponent</title>
<polygon fill="#ffffb3" stroke="#000000" points="1195.3738,-122 1028.6262,-122 1028.6262,-86 1195.3738,-86 1195.3738,-122"/>
<text text-anchor="middle" x="1112" y="-99.8" font-family="Times,serif" font-size="14.00" fill="#000000">PageAddClientComponent</text>
</g>
<!-- PageAddClientComponent&#45;&gt;ClientsModule -->
<g id="edge8" class="edge">
<title>PageAddClientComponent&#45;&gt;ClientsModule</title>
<path fill="none" stroke="#000000" d="M1112,-122.0109C1112,-144.4852 1112,-180 1112,-180 1112,-180 1372.3511,-180 1372.3511,-180"/>
<polygon fill="#000000" stroke="#000000" points="1372.3511,-183.5001 1382.3511,-180 1372.3511,-176.5001 1372.3511,-183.5001"/>
</g>
<!-- PageClientsComponent -->
<g id="node10" class="node">
<title>PageClientsComponent</title>
<polygon fill="#ffffb3" stroke="#000000" points="1010.212,-122 861.788,-122 861.788,-86 1010.212,-86 1010.212,-122"/>
<text text-anchor="middle" x="936" y="-99.8" font-family="Times,serif" font-size="14.00" fill="#000000">PageClientsComponent</text>
</g>
<!-- PageClientsComponent&#45;&gt;ClientsModule -->
<g id="edge9" class="edge">
<title>PageClientsComponent&#45;&gt;ClientsModule</title>
<path fill="none" stroke="#000000" d="M936,-122.0263C936,-146.9773 936,-189 936,-189 936,-189 1372.1707,-189 1372.1707,-189"/>
<polygon fill="#000000" stroke="#000000" points="1372.1707,-192.5001 1382.1707,-189 1372.1706,-185.5001 1372.1707,-192.5001"/>
</g>
<!-- ClientsRoutingModule -->
<g id="node12" class="node">
<title>ClientsRoutingModule</title>
<polygon fill="#8dd3c7" stroke="#000000" points="1658.3356,-122 1655.3356,-126 1634.3356,-126 1631.3356,-122 1513.6644,-122 1513.6644,-86 1658.3356,-86 1658.3356,-122"/>
<text text-anchor="middle" x="1586" y="-99.8" font-family="Times,serif" font-size="14.00" fill="#000000">ClientsRoutingModule</text>
</g>
<!-- ClientsRoutingModule&#45;&gt;ClientsModule -->
<g id="edge10" class="edge">
<title>ClientsRoutingModule&#45;&gt;ClientsModule</title>
<path fill="none" stroke="#000000" d="M1586,-122.0449C1586,-143.6623 1586,-177 1586,-177 1586,-177 1491.9994,-177 1491.9994,-177"/>
<polygon fill="#000000" stroke="#000000" points="1491.9994,-173.5001 1481.9994,-177 1491.9994,-180.5001 1491.9994,-173.5001"/>
</g>
<!-- SharedModule -->
<g id="node13" class="node">
<title>SharedModule</title>
<polygon fill="#8dd3c7" stroke="#000000" points="1774.4231,-122 1771.4231,-126 1750.4231,-126 1747.4231,-122 1675.5769,-122 1675.5769,-86 1774.4231,-86 1774.4231,-122"/>
<text text-anchor="middle" x="1725" y="-99.8" font-family="Times,serif" font-size="14.00" fill="#000000">SharedModule</text>
</g>
<!-- SharedModule&#45;&gt;ClientsModule -->
<g id="edge11" class="edge">
<title>SharedModule&#45;&gt;ClientsModule</title>
<path fill="none" stroke="#000000" d="M1759.0692,-122.1532C1759.0692,-145.7566 1759.0692,-184 1759.0692,-184 1759.0692,-184 1491.6748,-184 1491.6748,-184"/>
<polygon fill="#000000" stroke="#000000" points="1491.6748,-180.5001 1481.6748,-184 1491.6747,-187.5001 1491.6748,-180.5001"/>
</g>
<!-- PrestationsModule -->
<g id="node23" class="node">
<title>PrestationsModule</title>
<polygon fill="#8dd3c7" stroke="#000000" points="4219.4832,-198 4216.4832,-202 4195.4832,-202 4192.4832,-198 4098.5168,-198 4098.5168,-162 4219.4832,-162 4219.4832,-198"/>
<text text-anchor="middle" x="4159" y="-175.8" font-family="Times,serif" font-size="14.00" fill="#000000">PrestationsModule</text>
</g>
<!-- SharedModule&#45;&gt;PrestationsModule -->
<g id="edge21" class="edge">
<title>SharedModule&#45;&gt;PrestationsModule</title>
<path fill="none" stroke="#000000" d="M1751.4983,-122.1679C1751.4983,-124.4478 1751.4983,-126 1751.4983,-126 1751.4983,-126 4138.8361,-126 4138.8361,-126 4138.8361,-126 4138.8361,-151.7181 4138.8361,-151.7181"/>
<polygon fill="#000000" stroke="#000000" points="4135.3362,-151.718 4138.8361,-161.7181 4142.3362,-151.7181 4135.3362,-151.718"/>
</g>
<!-- ActifDirective  -->
<g id="node30" class="node">
<title>ActifDirective </title>
<polygon fill="#fb8072" stroke="#000000" points="2561.3464,-198 2460.6536,-198 2460.6536,-162 2561.3464,-162 2561.3464,-198"/>
<text text-anchor="middle" x="2511" y="-175.8" font-family="Times,serif" font-size="14.00" fill="#000000">ActifDirective </text>
</g>
<!-- SharedModule&#45;&gt;ActifDirective  -->
<g id="edge28" class="edge">
<title>SharedModule&#45;&gt;ActifDirective </title>
<path fill="none" stroke="#000000" stroke-dasharray="5,2" d="M1743.9273,-122.1274C1743.9273,-132.7109 1743.9273,-144 1743.9273,-144 1743.9273,-144 2511,-144 2511,-144 2511,-144 2511,-151.5782 2511,-151.5782"/>
<polygon fill="#000000" stroke="#000000" points="2507.5001,-151.5781 2511,-161.5782 2514.5001,-151.5782 2507.5001,-151.5781"/>
</g>
<!-- AddRowComponent  -->
<g id="node31" class="node">
<title>AddRowComponent </title>
<polygon fill="#fb8072" stroke="#000000" points="2442.8827,-198 2307.1173,-198 2307.1173,-162 2442.8827,-162 2442.8827,-198"/>
<text text-anchor="middle" x="2375" y="-175.8" font-family="Times,serif" font-size="14.00" fill="#000000">AddRowComponent </text>
</g>
<!-- SharedModule&#45;&gt;AddRowComponent  -->
<g id="edge29" class="edge">
<title>SharedModule&#45;&gt;AddRowComponent </title>
<path fill="none" stroke="#000000" stroke-dasharray="5,2" d="M1736.3564,-122.4854C1736.3564,-134.1399 1736.3564,-147 1736.3564,-147 1736.3564,-147 2375,-147 2375,-147 2375,-147 2375,-151.9551 2375,-151.9551"/>
<polygon fill="#000000" stroke="#000000" points="2371.5001,-151.9551 2375,-161.9551 2378.5001,-151.9552 2371.5001,-151.9551"/>
</g>
<!-- StateDirective  -->
<g id="node32" class="node">
<title>StateDirective </title>
<polygon fill="#fb8072" stroke="#000000" points="2289.5767,-198 2190.4233,-198 2190.4233,-162 2289.5767,-162 2289.5767,-198"/>
<text text-anchor="middle" x="2240" y="-175.8" font-family="Times,serif" font-size="14.00" fill="#000000">StateDirective </text>
</g>
<!-- SharedModule&#45;&gt;StateDirective  -->
<g id="edge30" class="edge">
<title>SharedModule&#45;&gt;StateDirective </title>
<path fill="none" stroke="#000000" stroke-dasharray="5,2" d="M1728.7855,-122.1804C1728.7855,-135.0382 1728.7855,-150 1728.7855,-150 1728.7855,-150 2240,-150 2240,-150 2240,-150 2240,-151.8568 2240,-151.8568"/>
<polygon fill="#000000" stroke="#000000" points="2236.5001,-151.8568 2240,-161.8568 2243.5001,-151.8568 2236.5001,-151.8568"/>
</g>
<!-- TableauComponent  -->
<g id="node33" class="node">
<title>TableauComponent </title>
<polygon fill="#fb8072" stroke="#000000" points="2171.9194,-198 2042.0806,-198 2042.0806,-162 2171.9194,-162 2171.9194,-198"/>
<text text-anchor="middle" x="2107" y="-175.8" font-family="Times,serif" font-size="14.00" fill="#000000">TableauComponent </text>
</g>
<!-- SharedModule&#45;&gt;TableauComponent  -->
<g id="edge31" class="edge">
<title>SharedModule&#45;&gt;TableauComponent </title>
<path fill="none" stroke="#000000" stroke-dasharray="5,2" d="M1721.2145,-122.2458C1721.2145,-136.1772 1721.2145,-153 1721.2145,-153 1721.2145,-153 2107,-153 2107,-153 2107,-153 2107,-153.8841 2107,-153.8841"/>
<polygon fill="#000000" stroke="#000000" points="2103.5001,-151.8408 2107,-161.8408 2110.5001,-151.8409 2103.5001,-151.8408"/>
</g>
<!-- TotalPipe  -->
<g id="node34" class="node">
<title>TotalPipe </title>
<polygon fill="#fb8072" stroke="#000000" points="2023.9362,-198 1950.0638,-198 1950.0638,-162 2023.9362,-162 2023.9362,-198"/>
<text text-anchor="middle" x="1987" y="-175.8" font-family="Times,serif" font-size="14.00" fill="#000000">TotalPipe </text>
</g>
<!-- SharedModule&#45;&gt;TotalPipe  -->
<g id="edge32" class="edge">
<title>SharedModule&#45;&gt;TotalPipe </title>
<path fill="none" stroke="#000000" stroke-dasharray="5,2" d="M1766.6402,-122.0348C1766.6402,-141.5762 1766.6402,-170 1766.6402,-170 1766.6402,-170 1939.619,-170 1939.619,-170"/>
<polygon fill="#000000" stroke="#000000" points="1939.619,-173.5001 1949.619,-170 1939.6189,-166.5001 1939.619,-173.5001"/>
</g>
<!-- TemplatesModule -->
<g id="node14" class="node">
<title>TemplatesModule</title>
<polygon fill="#8dd3c7" stroke="#000000" points="1909.8627,-122 1906.8627,-126 1885.8627,-126 1882.8627,-122 1792.1373,-122 1792.1373,-86 1909.8627,-86 1909.8627,-122"/>
<text text-anchor="middle" x="1851" y="-99.8" font-family="Times,serif" font-size="14.00" fill="#000000">TemplatesModule</text>
</g>
<!-- TemplatesModule&#45;&gt;ClientsModule -->
<g id="edge12" class="edge">
<title>TemplatesModule&#45;&gt;ClientsModule</title>
<path fill="none" stroke="#000000" d="M1851,-122.0265C1851,-147.5093 1851,-191 1851,-191 1851,-191 1491.7102,-191 1491.7102,-191"/>
<polygon fill="#000000" stroke="#000000" points="1491.7102,-187.5001 1481.7102,-191 1491.7102,-194.5001 1491.7102,-187.5001"/>
</g>
<!-- TemplatesModule&#45;&gt;PrestationsModule -->
<g id="edge22" class="edge">
<title>TemplatesModule&#45;&gt;PrestationsModule</title>
<path fill="none" stroke="#000000" d="M1910.0809,-92C2244.0013,-92 3880.0516,-92 3880.0516,-92 3880.0516,-92 3880.0516,-186 3880.0516,-186 3880.0516,-186 4088.4723,-186 4088.4723,-186"/>
<polygon fill="#000000" stroke="#000000" points="4088.4724,-189.5001 4098.4723,-186 4088.4723,-182.5001 4088.4724,-189.5001"/>
</g>
<!-- TemplateAComponent  -->
<g id="node37" class="node">
<title>TemplateAComponent </title>
<polygon fill="#fb8072" stroke="#000000" points="3529.8073,-198 3382.1927,-198 3382.1927,-162 3529.8073,-162 3529.8073,-198"/>
<text text-anchor="middle" x="3456" y="-175.8" font-family="Times,serif" font-size="14.00" fill="#000000">TemplateAComponent </text>
</g>
<!-- TemplatesModule&#45;&gt;TemplateAComponent  -->
<g id="edge35" class="edge">
<title>TemplatesModule&#45;&gt;TemplateAComponent </title>
<path fill="none" stroke="#000000" stroke-dasharray="5,2" d="M1910.0263,-110C2199.5896,-110 3456,-110 3456,-110 3456,-110 3456,-151.9733 3456,-151.9733"/>
<polygon fill="#000000" stroke="#000000" points="3452.5001,-151.9732 3456,-161.9733 3459.5001,-151.9733 3452.5001,-151.9732"/>
</g>
<!-- TemplateBComponent  -->
<g id="node38" class="node">
<title>TemplateBComponent </title>
<polygon fill="#fb8072" stroke="#000000" points="3364.5372,-198 3217.4628,-198 3217.4628,-162 3364.5372,-162 3364.5372,-198"/>
<text text-anchor="middle" x="3291" y="-175.8" font-family="Times,serif" font-size="14.00" fill="#000000">TemplateBComponent </text>
</g>
<!-- TemplatesModule&#45;&gt;TemplateBComponent  -->
<g id="edge36" class="edge">
<title>TemplatesModule&#45;&gt;TemplateBComponent </title>
<path fill="none" stroke="#000000" stroke-dasharray="5,2" d="M1910.1343,-116C2181.1048,-116 3291,-116 3291,-116 3291,-116 3291,-151.8314 3291,-151.8314"/>
<polygon fill="#000000" stroke="#000000" points="3287.5001,-151.8313 3291,-161.8314 3294.5001,-151.8314 3287.5001,-151.8313"/>
</g>
<!-- PageLoginComponent -->
<g id="node15" class="node">
<title>PageLoginComponent</title>
<polygon fill="#ffffb3" stroke="#000000" points="821.9874,-122 680.0126,-122 680.0126,-86 821.9874,-86 821.9874,-122"/>
<text text-anchor="middle" x="751" y="-99.8" font-family="Times,serif" font-size="14.00" fill="#000000">PageLoginComponent</text>
</g>
<!-- PageLoginComponent&#45;&gt;LoginModule -->
<g id="edge13" class="edge">
<title>PageLoginComponent&#45;&gt;LoginModule</title>
<path fill="none" stroke="#000000" d="M729.3629,-122.0091C729.3629,-138.0494 729.3629,-159 729.3629,-159 729.3629,-159 456,-159 456,-159 456,-159 456,-159.292 456,-159.292"/>
<polygon fill="#000000" stroke="#000000" points="452.5004,-151.9198 456,-161.92 459.5004,-151.9201 452.5004,-151.9198"/>
</g>
<!-- PageNotFoundComponent -->
<g id="node16" class="node">
<title>PageNotFoundComponent</title>
<polygon fill="#ffffb3" stroke="#000000" points="5222.8243,-122 5057.1757,-122 5057.1757,-86 5222.8243,-86 5222.8243,-122"/>
<text text-anchor="middle" x="5140" y="-99.8" font-family="Times,serif" font-size="14.00" fill="#000000">PageNotFoundComponent</text>
</g>
<!-- PageNotFoundModule -->
<g id="node17" class="node">
<title>PageNotFoundModule</title>
<polygon fill="#8dd3c7" stroke="#000000" points="5110.5421,-198 5107.5421,-202 5086.5421,-202 5083.5421,-198 4967.4579,-198 4967.4579,-162 5110.5421,-162 5110.5421,-198"/>
<text text-anchor="middle" x="5039" y="-175.8" font-family="Times,serif" font-size="14.00" fill="#000000">PageNotFoundModule</text>
</g>
<!-- PageNotFoundComponent&#45;&gt;PageNotFoundModule -->
<g id="edge14" class="edge">
<title>PageNotFoundComponent&#45;&gt;PageNotFoundModule</title>
<path fill="none" stroke="#000000" d="M5084.0544,-122.0109C5084.0544,-122.0109 5084.0544,-151.855 5084.0544,-151.855"/>
<polygon fill="#000000" stroke="#000000" points="5080.5544,-151.8549 5084.0544,-161.855 5087.5544,-151.855 5080.5544,-151.8549"/>
</g>
<!-- PageNotFoundRoutingModule -->
<g id="node18" class="node">
<title>PageNotFoundRoutingModule</title>
<polygon fill="#8dd3c7" stroke="#000000" points="5033.1595,-122 5030.1595,-126 5009.1595,-126 5006.1595,-122 4844.8405,-122 4844.8405,-86 5033.1595,-86 5033.1595,-122"/>
<text text-anchor="middle" x="4939" y="-99.8" font-family="Times,serif" font-size="14.00" fill="#000000">PageNotFoundRoutingModule</text>
</g>
<!-- PageNotFoundRoutingModule&#45;&gt;PageNotFoundModule -->
<g id="edge15" class="edge">
<title>PageNotFoundRoutingModule&#45;&gt;PageNotFoundModule</title>
<path fill="none" stroke="#000000" d="M5000.2795,-122.0109C5000.2795,-122.0109 5000.2795,-151.855 5000.2795,-151.855"/>
<polygon fill="#000000" stroke="#000000" points="4996.7795,-151.8549 5000.2795,-161.855 5003.7795,-151.855 4996.7795,-151.8549"/>
</g>
<!-- ListPrestationsComponent -->
<g id="node19" class="node">
<title>ListPrestationsComponent</title>
<polygon fill="#ffffb3" stroke="#000000" points="4805.0448,-122 4640.9552,-122 4640.9552,-86 4805.0448,-86 4805.0448,-122"/>
<text text-anchor="middle" x="4723" y="-99.8" font-family="Times,serif" font-size="14.00" fill="#000000">ListPrestationsComponent</text>
</g>
<!-- ListPrestationsComponent&#45;&gt;PrestationsModule -->
<g id="edge16" class="edge">
<title>ListPrestationsComponent&#45;&gt;PrestationsModule</title>
<path fill="none" stroke="#000000" d="M4723,-122.0263C4723,-146.9773 4723,-189 4723,-189 4723,-189 4229.6256,-189 4229.6256,-189"/>
<polygon fill="#000000" stroke="#000000" points="4229.6256,-185.5001 4219.6256,-189 4229.6255,-192.5001 4229.6256,-185.5001"/>
</g>
<!-- PageAddPrestationComponent -->
<g id="node20" class="node">
<title>PageAddPrestationComponent</title>
<polygon fill="#ffffb3" stroke="#000000" points="4622.1399,-122 4433.8601,-122 4433.8601,-86 4622.1399,-86 4622.1399,-122"/>
<text text-anchor="middle" x="4528" y="-99.8" font-family="Times,serif" font-size="14.00" fill="#000000">PageAddPrestationComponent</text>
</g>
<!-- PageAddPrestationComponent&#45;&gt;PrestationsModule -->
<g id="edge17" class="edge">
<title>PageAddPrestationComponent&#45;&gt;PrestationsModule</title>
<path fill="none" stroke="#000000" d="M4528,-122.0109C4528,-144.4852 4528,-180 4528,-180 4528,-180 4229.5196,-180 4229.5196,-180"/>
<polygon fill="#000000" stroke="#000000" points="4229.5197,-176.5001 4219.5196,-180 4229.5196,-183.5001 4229.5197,-176.5001"/>
</g>
<!-- PagePrestationsComponent -->
<g id="node21" class="node">
<title>PagePrestationsComponent</title>
<polygon fill="#ffffb3" stroke="#000000" points="4415.9776,-122 4246.0224,-122 4246.0224,-86 4415.9776,-86 4415.9776,-122"/>
<text text-anchor="middle" x="4331" y="-99.8" font-family="Times,serif" font-size="14.00" fill="#000000">PagePrestationsComponent</text>
</g>
<!-- PagePrestationsComponent&#45;&gt;PrestationsModule -->
<g id="edge18" class="edge">
<title>PagePrestationsComponent&#45;&gt;PrestationsModule</title>
<path fill="none" stroke="#000000" d="M4331,-122.308C4331,-142.1455 4331,-171 4331,-171 4331,-171 4229.6408,-171 4229.6408,-171"/>
<polygon fill="#000000" stroke="#000000" points="4229.6408,-167.5001 4219.6408,-171 4229.6407,-174.5001 4229.6408,-167.5001"/>
</g>
<!-- PrestationComponent -->
<g id="node22" class="node">
<title>PrestationComponent</title>
<polygon fill="#ffffb3" stroke="#000000" points="4227.8216,-122 4090.1784,-122 4090.1784,-86 4227.8216,-86 4227.8216,-122"/>
<text text-anchor="middle" x="4159" y="-99.8" font-family="Times,serif" font-size="14.00" fill="#000000">PrestationComponent</text>
</g>
<!-- PrestationComponent&#45;&gt;PrestationsModule -->
<g id="edge19" class="edge">
<title>PrestationComponent&#45;&gt;PrestationsModule</title>
<path fill="none" stroke="#000000" d="M4179.1639,-122.0109C4179.1639,-122.0109 4179.1639,-151.855 4179.1639,-151.855"/>
<polygon fill="#000000" stroke="#000000" points="4175.664,-151.8549 4179.1639,-161.855 4182.664,-151.855 4175.664,-151.8549"/>
</g>
<!-- PrestationsRoutingModule -->
<g id="node24" class="node">
<title>PrestationsRoutingModule</title>
<polygon fill="#8dd3c7" stroke="#000000" points="4066.101,-122 4063.101,-126 4042.101,-126 4039.101,-122 3899.899,-122 3899.899,-86 4066.101,-86 4066.101,-122"/>
<text text-anchor="middle" x="3983" y="-99.8" font-family="Times,serif" font-size="14.00" fill="#000000">PrestationsRoutingModule</text>
</g>
<!-- PrestationsRoutingModule&#45;&gt;PrestationsModule -->
<g id="edge20" class="edge">
<title>PrestationsRoutingModule&#45;&gt;PrestationsModule</title>
<path fill="none" stroke="#000000" d="M3983,-122.0267C3983,-142.7672 3983,-174 3983,-174 3983,-174 4088.4308,-174 4088.4308,-174"/>
<polygon fill="#000000" stroke="#000000" points="4088.4308,-177.5001 4098.4308,-174 4088.4307,-170.5001 4088.4308,-177.5001"/>
</g>
<!-- ActifDirective -->
<g id="node25" class="node">
<title>ActifDirective</title>
<polygon fill="#ffffb3" stroke="#000000" points="3177.3459,-198 3080.6541,-198 3080.6541,-162 3177.3459,-162 3177.3459,-198"/>
<text text-anchor="middle" x="3129" y="-175.8" font-family="Times,serif" font-size="14.00" fill="#000000">ActifDirective</text>
</g>
<!-- ActifDirective&#45;&gt;SharedModule -->
<g id="edge23" class="edge">
<title>ActifDirective&#45;&gt;SharedModule</title>
<path fill="none" stroke="#000000" d="M3129,-161.8757C3129,-147.2168 3129,-129 3129,-129 3129,-129 1713.6436,-129 1713.6436,-129 1713.6436,-129 1713.6436,-128.3169 1713.6436,-128.3169"/>
<polygon fill="#000000" stroke="#000000" points="1717.1438,-132.1686 1713.6436,-122.1686 1710.1438,-132.1687 1717.1438,-132.1686"/>
</g>
<!-- AddRowComponent -->
<g id="node26" class="node">
<title>AddRowComponent</title>
<polygon fill="#ffffb3" stroke="#000000" points="3062.8823,-198 2931.1177,-198 2931.1177,-162 3062.8823,-162 3062.8823,-198"/>
<text text-anchor="middle" x="2997" y="-175.8" font-family="Times,serif" font-size="14.00" fill="#000000">AddRowComponent</text>
</g>
<!-- AddRowComponent&#45;&gt;SharedModule -->
<g id="edge24" class="edge">
<title>AddRowComponent&#45;&gt;SharedModule</title>
<path fill="none" stroke="#000000" d="M2997,-161.8533C2997,-148.2605 2997,-132 2997,-132 2997,-132 1706.0727,-132 1706.0727,-132 1706.0727,-132 1706.0727,-131.0207 1706.0727,-131.0207"/>
<polygon fill="#000000" stroke="#000000" points="1709.5728,-132.2069 1706.0727,-122.207 1702.5728,-132.207 1709.5728,-132.2069"/>
</g>
<!-- StateDirective -->
<g id="node27" class="node">
<title>StateDirective</title>
<polygon fill="#ffffb3" stroke="#000000" points="2913.0758,-198 2816.9242,-198 2816.9242,-162 2913.0758,-162 2913.0758,-198"/>
<text text-anchor="middle" x="2865" y="-175.8" font-family="Times,serif" font-size="14.00" fill="#000000">StateDirective</text>
</g>
<!-- StateDirective&#45;&gt;SharedModule -->
<g id="edge25" class="edge">
<title>StateDirective&#45;&gt;SharedModule</title>
<path fill="none" stroke="#000000" d="M2865,-161.9561C2865,-149.4367 2865,-135 2865,-135 2865,-135 1698.5017,-135 1698.5017,-135 1698.5017,-135 1698.5017,-132.0328 1698.5017,-132.0328"/>
<polygon fill="#000000" stroke="#000000" points="1702.0018,-132.0328 1698.5017,-122.0328 1695.0018,-132.0329 1702.0018,-132.0328"/>
</g>
<!-- TableauComponent -->
<g id="node28" class="node">
<title>TableauComponent</title>
<polygon fill="#ffffb3" stroke="#000000" points="2799.4201,-198 2672.5799,-198 2672.5799,-162 2799.4201,-162 2799.4201,-198"/>
<text text-anchor="middle" x="2736" y="-175.8" font-family="Times,serif" font-size="14.00" fill="#000000">TableauComponent</text>
</g>
<!-- TableauComponent&#45;&gt;SharedModule -->
<g id="edge26" class="edge">
<title>TableauComponent&#45;&gt;SharedModule</title>
<path fill="none" stroke="#000000" d="M2736,-161.9445C2736,-150.561 2736,-138 2736,-138 2736,-138 1690.9308,-138 1690.9308,-138 1690.9308,-138 1690.9308,-132.1944 1690.9308,-132.1944"/>
<polygon fill="#000000" stroke="#000000" points="1694.4309,-132.1944 1690.9308,-122.1944 1687.4309,-132.1945 1694.4309,-132.1944"/>
</g>
<!-- TotalPipe -->
<g id="node29" class="node">
<title>TotalPipe</title>
<polygon fill="#ffffb3" stroke="#000000" points="2655.4376,-198 2584.5624,-198 2584.5624,-162 2655.4376,-162 2655.4376,-198"/>
<text text-anchor="middle" x="2620" y="-175.8" font-family="Times,serif" font-size="14.00" fill="#000000">TotalPipe</text>
</g>
<!-- TotalPipe&#45;&gt;SharedModule -->
<g id="edge27" class="edge">
<title>TotalPipe&#45;&gt;SharedModule</title>
<path fill="none" stroke="#000000" d="M2620,-161.8701C2620,-151.6855 2620,-141 2620,-141 2620,-141 1683.3598,-141 1683.3598,-141 1683.3598,-141 1683.3598,-132.0664 1683.3598,-132.0664"/>
<polygon fill="#000000" stroke="#000000" points="1686.8599,-132.0664 1683.3598,-122.0664 1679.8599,-132.0665 1686.8599,-132.0664"/>
</g>
<!-- TemplateAComponent -->
<g id="node35" class="node">
<title>TemplateAComponent</title>
<polygon fill="#ffffb3" stroke="#000000" points="3860.3075,-198 3715.6925,-198 3715.6925,-162 3860.3075,-162 3860.3075,-198"/>
<text text-anchor="middle" x="3788" y="-175.8" font-family="Times,serif" font-size="14.00" fill="#000000">TemplateAComponent</text>
</g>
<!-- TemplateAComponent&#45;&gt;TemplatesModule -->
<g id="edge33" class="edge">
<title>TemplateAComponent&#45;&gt;TemplatesModule</title>
<path fill="none" stroke="#000000" d="M3788,-161.8015C3788,-137.6437 3788,-98 3788,-98 3788,-98 1920.0282,-98 1920.0282,-98"/>
<polygon fill="#000000" stroke="#000000" points="1920.0282,-94.5001 1910.0282,-98 1920.0282,-101.5001 1920.0282,-94.5001"/>
</g>
<!-- TemplateBComponent -->
<g id="node36" class="node">
<title>TemplateBComponent</title>
<polygon fill="#ffffb3" stroke="#000000" points="3697.5379,-198 3554.4621,-198 3554.4621,-162 3697.5379,-162 3697.5379,-198"/>
<text text-anchor="middle" x="3626" y="-175.8" font-family="Times,serif" font-size="14.00" fill="#000000">TemplateBComponent</text>
</g>
<!-- TemplateBComponent&#45;&gt;TemplatesModule -->
<g id="edge34" class="edge">
<title>TemplateBComponent&#45;&gt;TemplatesModule</title>
<path fill="none" stroke="#000000" d="M3626,-161.9891C3626,-139.5148 3626,-104 3626,-104 3626,-104 1920.0574,-104 1920.0574,-104"/>
<polygon fill="#000000" stroke="#000000" points="1920.0575,-100.5001 1910.0574,-104 1920.0574,-107.5001 1920.0575,-100.5001"/>
</g>
<!-- FooterComponent -->
<g id="node39" class="node">
<title>FooterComponent</title>
<polygon fill="#ffffb3" stroke="#000000" points="639.8809,-122 522.1191,-122 522.1191,-86 639.8809,-86 639.8809,-122"/>
<text text-anchor="middle" x="581" y="-99.8" font-family="Times,serif" font-size="14.00" fill="#000000">FooterComponent</text>
</g>
<!-- FooterComponent&#45;&gt;UiModule -->
<g id="edge37" class="edge">
<title>FooterComponent&#45;&gt;UiModule</title>
<path fill="none" stroke="#000000" d="M581,-122.1871C581,-137.1824 581,-156 581,-156 581,-156 388.5584,-156 388.5584,-156 388.5584,-156 388.5584,-156.581 388.5584,-156.581"/>
<polygon fill="#000000" stroke="#000000" points="385.0586,-151.8097 388.5584,-161.8097 392.0586,-151.8098 385.0586,-151.8097"/>
</g>
<!-- HeaderComponent -->
<g id="node40" class="node">
<title>HeaderComponent</title>
<polygon fill="#ffffb3" stroke="#000000" points="503.7437,-122 382.2563,-122 382.2563,-86 503.7437,-86 503.7437,-122"/>
<text text-anchor="middle" x="443" y="-99.8" font-family="Times,serif" font-size="14.00" fill="#000000">HeaderComponent</text>
</g>
<!-- HeaderComponent&#45;&gt;UiModule -->
<g id="edge38" class="edge">
<title>HeaderComponent&#45;&gt;UiModule</title>
<path fill="none" stroke="#000000" d="M385.3434,-122.0109C385.3434,-122.0109 385.3434,-151.855 385.3434,-151.855"/>
<polygon fill="#000000" stroke="#000000" points="381.8435,-151.8549 385.3434,-161.855 388.8435,-151.855 381.8435,-151.8549"/>
</g>
<!-- NavComponent -->
<g id="node41" class="node">
<title>NavComponent</title>
<polygon fill="#ffffb3" stroke="#000000" points="364.1542,-122 259.8458,-122 259.8458,-86 364.1542,-86 364.1542,-122"/>
<text text-anchor="middle" x="312" y="-99.8" font-family="Times,serif" font-size="14.00" fill="#000000">NavComponent</text>
</g>
<!-- NavComponent&#45;&gt;UiModule -->
<g id="edge39" class="edge">
<title>NavComponent&#45;&gt;UiModule</title>
<path fill="none" stroke="#000000" d="M341.2767,-122.0109C341.2767,-122.0109 341.2767,-151.855 341.2767,-151.855"/>
<polygon fill="#000000" stroke="#000000" points="337.7767,-151.8549 341.2767,-161.855 344.7767,-151.855 337.7767,-151.8549"/>
</g>
<!-- UiComponent -->
<g id="node42" class="node">
<title>UiComponent</title>
<polygon fill="#ffffb3" stroke="#000000" points="241.8302,-122 146.1698,-122 146.1698,-86 241.8302,-86 241.8302,-122"/>
<text text-anchor="middle" x="194" y="-99.8" font-family="Times,serif" font-size="14.00" fill="#000000">UiComponent</text>
</g>
<!-- UiComponent&#45;&gt;UiModule -->
<g id="edge40" class="edge">
<title>UiComponent&#45;&gt;UiModule</title>
<path fill="none" stroke="#000000" d="M194,-122.0267C194,-142.7672 194,-174 194,-174 194,-174 308.0633,-174 308.0633,-174"/>
<polygon fill="#000000" stroke="#000000" points="308.0634,-177.5001 318.0633,-174 308.0633,-170.5001 308.0634,-177.5001"/>
</g>
</g>
</svg>
