<?xml version="1.0" encoding="UTF-8" standalone="no"?>
<!DOCTYPE svg PUBLIC "-//W3C//DTD SVG 1.1//EN"
 "http://www.w3.org/Graphics/SVG/1.1/DTD/svg11.dtd">
<!-- Generated by graphviz version 2.40.1 (20161225.0304)
 -->
<!-- Title: dependencies Pages: 1 -->
<svg width="1732pt" height="284pt"
 viewBox="0.00 0.00 1732.00 284.00" xmlns="http://www.w3.org/2000/svg" xmlns:xlink="http://www.w3.org/1999/xlink">
<g id="graph0" class="graph" transform="scale(1 1) rotate(0) translate(4 280)">
<title>dependencies</title>
<polygon fill="#ffffff" stroke="transparent" points="-4,4 -4,-280 1728,-280 1728,4 -4,4"/>
<text text-anchor="start" x="841.0091" y="-42.4" font-family="sans-serif" font-weight="bold" font-size="14.00" fill="#000000">Legend</text>
<polygon fill="#ffffb3" stroke="transparent" points="628,-10 628,-30 648,-30 648,-10 628,-10"/>
<text text-anchor="start" x="651.629" y="-15.4" font-family="sans-serif" font-size="14.00" fill="#000000"> &#160;Declarations</text>
<polygon fill="#8dd3c7" stroke="transparent" points="741,-10 741,-30 761,-30 761,-10 741,-10"/>
<text text-anchor="start" x="764.7251" y="-15.4" font-family="sans-serif" font-size="14.00" fill="#000000"> &#160;Module</text>
<polygon fill="#80b1d3" stroke="transparent" points="827,-10 827,-30 847,-30 847,-10 827,-10"/>
<text text-anchor="start" x="850.7812" y="-15.4" font-family="sans-serif" font-size="14.00" fill="#000000"> &#160;Bootstrap</text>
<polygon fill="#fdb462" stroke="transparent" points="924,-10 924,-30 944,-30 944,-10 924,-10"/>
<text text-anchor="start" x="947.6732" y="-15.4" font-family="sans-serif" font-size="14.00" fill="#000000"> &#160;Providers</text>
<polygon fill="#fb8072" stroke="transparent" points="1020,-10 1020,-30 1040,-30 1040,-10 1020,-10"/>
<text text-anchor="start" x="1043.7258" y="-15.4" font-family="sans-serif" font-size="14.00" fill="#000000"> &#160;Exports</text>
<g id="clust1" class="cluster">
<title>cluster_AppModule</title>
<polygon fill="none" stroke="#000000" stroke-dasharray="1,5" points="8,-70 8,-268 1716,-268 1716,-70 8,-70"/>
</g>
<g id="clust2" class="cluster">
<title>cluster_AppModule_declarations</title>
<polygon fill="none" stroke="#000000" points="1586,-78 1586,-130 1708,-130 1708,-78 1586,-78"/>
</g>
<g id="clust4" class="cluster">
<title>cluster_AppModule_imports</title>
<polygon fill="none" stroke="#000000" points="384,-78 384,-130 1578,-130 1578,-78 384,-78"/>
</g>
<g id="clust6" class="cluster">
<title>cluster_AppModule_bootstrap</title>
<polygon fill="none" stroke="#000000" points="1035,-208 1035,-260 1159,-260 1159,-208 1035,-208"/>
</g>
<g id="clust7" class="cluster">
<title>cluster_AppModule_providers</title>
<polygon fill="none" stroke="#000000" points="16,-78 16,-130 376,-130 376,-78 16,-78"/>
</g>
<!-- AppComponent -->
<g id="node1" class="node">
<title>AppComponent</title>
<polygon fill="#ffffb3" stroke="#000000" points="1699.9399,-122 1594.0601,-122 1594.0601,-86 1699.9399,-86 1699.9399,-122"/>
<text text-anchor="middle" x="1647" y="-99.8" font-family="Times,serif" font-size="14.00" fill="#000000">AppComponent</text>
</g>
<!-- AppModule -->
<g id="node2" class="node">
<title>AppModule</title>
<polygon fill="#8dd3c7" stroke="#000000" points="1138.6571,-187 1135.6571,-191 1114.6571,-191 1111.6571,-187 1055.3429,-187 1055.3429,-151 1138.6571,-151 1138.6571,-187"/>
<text text-anchor="middle" x="1097" y="-164.8" font-family="Times,serif" font-size="14.00" fill="#000000">AppModule</text>
</g>
<!-- AppComponent&#45;&gt;AppModule -->
<g id="edge1" class="edge">
<title>AppComponent&#45;&gt;AppModule</title>
<path fill="none" stroke="#000000" d="M1647,-122.0109C1647,-144.4852 1647,-180 1647,-180 1647,-180 1148.7908,-180 1148.7908,-180"/>
<polygon fill="#000000" stroke="#000000" points="1148.7909,-176.5001 1138.7908,-180 1148.7908,-183.5001 1148.7909,-176.5001"/>
</g>
<!-- AppComponent  -->
<g id="node11" class="node">
<title>AppComponent </title>
<polygon fill="#80b1d3" stroke="#000000" points="1151.439,-252 1042.561,-252 1042.561,-216 1151.439,-216 1151.439,-252"/>
<text text-anchor="middle" x="1097" y="-229.8" font-family="Times,serif" font-size="14.00" fill="#000000">AppComponent </text>
</g>
<!-- AppModule&#45;&gt;AppComponent  -->
<g id="edge10" class="edge">
<title>AppModule&#45;&gt;AppComponent </title>
<path fill="none" stroke="#000000" stroke-dasharray="1,5" d="M1097,-187.1061C1097,-187.1061 1097,-205.991 1097,-205.991"/>
<polygon fill="#000000" stroke="#000000" points="1093.5001,-205.9909 1097,-215.991 1100.5001,-205.991 1093.5001,-205.9909"/>
</g>
<!-- BrowserModule -->
<g id="node3" class="node">
<title>BrowserModule</title>
<polygon fill="#8dd3c7" stroke="#000000" points="1570.4734,-122 1567.4734,-126 1546.4734,-126 1543.4734,-122 1463.5266,-122 1463.5266,-86 1570.4734,-86 1570.4734,-122"/>
<text text-anchor="middle" x="1517" y="-99.8" font-family="Times,serif" font-size="14.00" fill="#000000">BrowserModule</text>
</g>
<!-- BrowserModule&#45;&gt;AppModule -->
<g id="edge2" class="edge">
<title>BrowserModule&#45;&gt;AppModule</title>
<path fill="none" stroke="#000000" d="M1517,-122.1289C1517,-142.5724 1517,-173 1517,-173 1517,-173 1148.8067,-173 1148.8067,-173"/>
<polygon fill="#000000" stroke="#000000" points="1148.8067,-169.5001 1138.8067,-173 1148.8067,-176.5001 1148.8067,-169.5001"/>
</g>
<!-- LoginModule -->
<g id="node4" class="node">
<title>LoginModule</title>
<polygon fill="#8dd3c7" stroke="#000000" points="1445.493,-122 1442.493,-126 1421.493,-126 1418.493,-122 1352.507,-122 1352.507,-86 1445.493,-86 1445.493,-122"/>
<text text-anchor="middle" x="1399" y="-99.8" font-family="Times,serif" font-size="14.00" fill="#000000">LoginModule</text>
</g>
<!-- LoginModule&#45;&gt;AppModule -->
<g id="edge3" class="edge">
<title>LoginModule&#45;&gt;AppModule</title>
<path fill="none" stroke="#000000" d="M1399,-122.2667C1399,-140.5552 1399,-166 1399,-166 1399,-166 1148.6747,-166 1148.6747,-166"/>
<polygon fill="#000000" stroke="#000000" points="1148.6748,-162.5001 1138.6747,-166 1148.6747,-169.5001 1148.6748,-162.5001"/>
</g>
<!-- UiModule -->
<g id="node5" class="node">
<title>UiModule</title>
<polygon fill="#8dd3c7" stroke="#000000" points="1334.5484,-122 1331.5484,-126 1310.5484,-126 1307.5484,-122 1261.4516,-122 1261.4516,-86 1334.5484,-86 1334.5484,-122"/>
<text text-anchor="middle" x="1298" y="-99.8" font-family="Times,serif" font-size="14.00" fill="#000000">UiModule</text>
</g>
<!-- UiModule&#45;&gt;AppModule -->
<g id="edge4" class="edge">
<title>UiModule&#45;&gt;AppModule</title>
<path fill="none" stroke="#000000" d="M1298,-122.0091C1298,-138.0494 1298,-159 1298,-159 1298,-159 1149.1362,-159 1149.1362,-159"/>
<polygon fill="#000000" stroke="#000000" points="1149.1362,-155.5001 1139.1362,-159 1149.1362,-162.5001 1149.1362,-155.5001"/>
</g>
<!-- NgbModule.forRoot() -->
<g id="node6" class="node">
<title>NgbModule.forRoot()</title>
<polygon fill="#8dd3c7" stroke="#000000" points="1243.026,-122 1240.026,-126 1219.026,-126 1216.026,-122 1102.974,-122 1102.974,-86 1243.026,-86 1243.026,-122"/>
<text text-anchor="middle" x="1173" y="-99.8" font-family="Times,serif" font-size="14.00" fill="#000000">NgbModule.forRoot()</text>
</g>
<!-- NgbModule.forRoot()&#45;&gt;AppModule -->
<g id="edge5" class="edge">
<title>NgbModule.forRoot()&#45;&gt;AppModule</title>
<path fill="none" stroke="#000000" d="M1120.9076,-122.1061C1120.9076,-122.1061 1120.9076,-140.991 1120.9076,-140.991"/>
<polygon fill="#000000" stroke="#000000" points="1117.4077,-140.9909 1120.9076,-150.991 1124.4077,-140.991 1117.4077,-140.9909"/>
</g>
<!-- AppRoutingModule -->
<g id="node7" class="node">
<title>AppRoutingModule</title>
<polygon fill="#8dd3c7" stroke="#000000" points="1085.2744,-122 1082.2744,-126 1061.2744,-126 1058.2744,-122 956.7256,-122 956.7256,-86 1085.2744,-86 1085.2744,-122"/>
<text text-anchor="middle" x="1021" y="-99.8" font-family="Times,serif" font-size="14.00" fill="#000000">AppRoutingModule</text>
</g>
<!-- AppRoutingModule&#45;&gt;AppModule -->
<g id="edge6" class="edge">
<title>AppRoutingModule&#45;&gt;AppModule</title>
<path fill="none" stroke="#000000" d="M1070.2795,-122.1061C1070.2795,-122.1061 1070.2795,-140.991 1070.2795,-140.991"/>
<polygon fill="#000000" stroke="#000000" points="1066.7795,-140.9909 1070.2795,-150.991 1073.7795,-140.991 1066.7795,-140.9909"/>
</g>
<!-- AngularFireModule.initializeApp(args) -->
<g id="node8" class="node">
<title>AngularFireModule.initializeApp(args)</title>
<polygon fill="#8dd3c7" stroke="#000000" points="938.7057,-122 935.7057,-126 914.7057,-126 911.7057,-122 701.2943,-122 701.2943,-86 938.7057,-86 938.7057,-122"/>
<text text-anchor="middle" x="820" y="-99.8" font-family="Times,serif" font-size="14.00" fill="#000000">AngularFireModule.initializeApp(args)</text>
</g>
<!-- AngularFireModule.initializeApp(args)&#45;&gt;AppModule -->
<g id="edge7" class="edge">
<title>AngularFireModule.initializeApp(args)&#45;&gt;AppModule</title>
<path fill="none" stroke="#000000" d="M820,-122.0091C820,-138.0494 820,-159 820,-159 820,-159 1045.2304,-159 1045.2304,-159"/>
<polygon fill="#000000" stroke="#000000" points="1045.2304,-162.5001 1055.2304,-159 1045.2304,-155.5001 1045.2304,-162.5001"/>
</g>
<!-- AngularFirestoreModule -->
<g id="node9" class="node">
<title>AngularFirestoreModule</title>
<polygon fill="#8dd3c7" stroke="#000000" points="683.6811,-122 680.6811,-126 659.6811,-126 656.6811,-122 528.3189,-122 528.3189,-86 683.6811,-86 683.6811,-122"/>
<text text-anchor="middle" x="606" y="-99.8" font-family="Times,serif" font-size="14.00" fill="#000000">AngularFirestoreModule</text>
</g>
<!-- AngularFirestoreModule&#45;&gt;AppModule -->
<g id="edge8" class="edge">
<title>AngularFirestoreModule&#45;&gt;AppModule</title>
<path fill="none" stroke="#000000" d="M606,-122.2667C606,-140.5552 606,-166 606,-166 606,-166 1045.1376,-166 1045.1376,-166"/>
<polygon fill="#000000" stroke="#000000" points="1045.1377,-169.5001 1055.1376,-166 1045.1376,-162.5001 1045.1377,-169.5001"/>
</g>
<!-- HttpClientModule -->
<g id="node10" class="node">
<title>HttpClientModule</title>
<polygon fill="#8dd3c7" stroke="#000000" points="510.1611,-122 507.1611,-126 486.1611,-126 483.1611,-122 391.8389,-122 391.8389,-86 510.1611,-86 510.1611,-122"/>
<text text-anchor="middle" x="451" y="-99.8" font-family="Times,serif" font-size="14.00" fill="#000000">HttpClientModule</text>
</g>
<!-- HttpClientModule&#45;&gt;AppModule -->
<g id="edge9" class="edge">
<title>HttpClientModule&#45;&gt;AppModule</title>
<path fill="none" stroke="#000000" d="M451,-122.1289C451,-142.5724 451,-173 451,-173 451,-173 1045.1119,-173 1045.1119,-173"/>
<polygon fill="#000000" stroke="#000000" points="1045.1119,-176.5001 1055.1119,-173 1045.1118,-169.5001 1045.1119,-176.5001"/>
</g>
<!-- { provide: LOCALE_ID, useValue: &#39;fr&#39; } -->
<g id="node12" class="node">
<title>{ provide: LOCALE_ID, useValue: &#39;fr&#39; }</title>
<ellipse fill="#fdb462" stroke="#000000" cx="196" cy="-104" rx="171.5795" ry="18"/>
<text text-anchor="middle" x="196" y="-99.8" font-family="Times,serif" font-size="14.00" fill="#000000">{ provide: LOCALE_ID, useValue: &#39;fr&#39; }</text>
</g>
<!-- { provide: LOCALE_ID, useValue: &#39;fr&#39; }&#45;&gt;AppModule -->
<g id="edge11" class="edge">
<title>{ provide: LOCALE_ID, useValue: &#39;fr&#39; }&#45;&gt;AppModule</title>
<path fill="none" stroke="#000000" d="M196,-122.0109C196,-144.4852 196,-180 196,-180 196,-180 1045.0511,-180 1045.0511,-180"/>
<polygon fill="#000000" stroke="#000000" points="1045.0512,-183.5001 1055.0511,-180 1045.0511,-176.5001 1045.0512,-183.5001"/>
</g>
</g>
</svg>
