<?xml version="1.0" encoding="UTF-8" standalone="no"?>
<!DOCTYPE svg PUBLIC "-//W3C//DTD SVG 1.1//EN"
 "http://www.w3.org/Graphics/SVG/1.1/DTD/svg11.dtd">
<!-- Generated by graphviz version 2.40.1 (20161225.0304)
 -->
<!-- Title: dependencies Pages: 1 -->
<svg width="3156pt" height="284pt"
 viewBox="0.00 0.00 3156.00 284.00" xmlns="http://www.w3.org/2000/svg" xmlns:xlink="http://www.w3.org/1999/xlink">
<g id="graph0" class="graph" transform="scale(1 1) rotate(0) translate(4 280)">
<title>dependencies</title>
<polygon fill="#ffffff" stroke="transparent" points="-4,4 -4,-280 3152,-280 3152,4 -4,4"/>
<text text-anchor="start" x="1553.0091" y="-42.4" font-family="sans-serif" font-weight="bold" font-size="14.00" fill="#000000">Legend</text>
<polygon fill="#ffffb3" stroke="transparent" points="1340,-10 1340,-30 1360,-30 1360,-10 1340,-10"/>
<text text-anchor="start" x="1363.629" y="-15.4" font-family="sans-serif" font-size="14.00" fill="#000000"> &#160;Declarations</text>
<polygon fill="#8dd3c7" stroke="transparent" points="1453,-10 1453,-30 1473,-30 1473,-10 1453,-10"/>
<text text-anchor="start" x="1476.7251" y="-15.4" font-family="sans-serif" font-size="14.00" fill="#000000"> &#160;Module</text>
<polygon fill="#80b1d3" stroke="transparent" points="1539,-10 1539,-30 1559,-30 1559,-10 1539,-10"/>
<text text-anchor="start" x="1562.7812" y="-15.4" font-family="sans-serif" font-size="14.00" fill="#000000"> &#160;Bootstrap</text>
<polygon fill="#fdb462" stroke="transparent" points="1636,-10 1636,-30 1656,-30 1656,-10 1636,-10"/>
<text text-anchor="start" x="1659.6732" y="-15.4" font-family="sans-serif" font-size="14.00" fill="#000000"> &#160;Providers</text>
<polygon fill="#fb8072" stroke="transparent" points="1732,-10 1732,-30 1752,-30 1752,-10 1732,-10"/>
<text text-anchor="start" x="1755.7258" y="-15.4" font-family="sans-serif" font-size="14.00" fill="#000000"> &#160;Exports</text>
<g id="clust1" class="cluster">
<title>cluster_PrestationsModule</title>
<polygon fill="none" stroke="#000000" stroke-dasharray="1,5" points="8,-70 8,-268 3140,-268 3140,-70 8,-70"/>
</g>
<g id="clust2" class="cluster">
<title>cluster_PrestationsModule_declarations</title>
<polygon fill="none" stroke="#000000" points="864,-78 864,-130 3132,-130 3132,-78 864,-78"/>
</g>
<g id="clust15" class="cluster">
<title>cluster_PrestationsModule_imports</title>
<polygon fill="none" stroke="#000000" points="16,-78 16,-130 856,-130 856,-78 16,-78"/>
</g>
<g id="clust16" class="cluster">
<title>cluster_PrestationsModule_exports</title>
<polygon fill="none" stroke="#000000" points="1295,-208 1295,-260 1493,-260 1493,-208 1295,-208"/>
</g>
<!-- PagePrestationsComponent -->
<g id="node1" class="node">
<title>PagePrestationsComponent</title>
<polygon fill="#ffffb3" stroke="#000000" points="3123.9776,-122 2954.0224,-122 2954.0224,-86 3123.9776,-86 3123.9776,-122"/>
<text text-anchor="middle" x="3039" y="-99.8" font-family="Times,serif" font-size="14.00" fill="#000000">PagePrestationsComponent</text>
</g>
<!-- PrestationsModule -->
<g id="node13" class="node">
<title>PrestationsModule</title>
<polygon fill="#8dd3c7" stroke="#000000" points="1454.4832,-187 1451.4832,-191 1430.4832,-191 1427.4832,-187 1333.5168,-187 1333.5168,-151 1454.4832,-151 1454.4832,-187"/>
<text text-anchor="middle" x="1394" y="-164.8" font-family="Times,serif" font-size="14.00" fill="#000000">PrestationsModule</text>
</g>
<!-- PagePrestationsComponent&#45;&gt;PrestationsModule -->
<g id="edge1" class="edge">
<title>PagePrestationsComponent&#45;&gt;PrestationsModule</title>
<path fill="none" stroke="#000000" d="M3039,-122.3228C3039,-145.6602 3039,-183 3039,-183 3039,-183 1464.4973,-183 1464.4973,-183"/>
<polygon fill="#000000" stroke="#000000" points="1464.4974,-179.5001 1454.4973,-183 1464.4973,-186.5001 1464.4974,-179.5001"/>
</g>
<!-- ListPrestationsComponent -->
<g id="node2" class="node">
<title>ListPrestationsComponent</title>
<polygon fill="#ffffb3" stroke="#000000" points="2936.0448,-122 2771.9552,-122 2771.9552,-86 2936.0448,-86 2936.0448,-122"/>
<text text-anchor="middle" x="2854" y="-99.8" font-family="Times,serif" font-size="14.00" fill="#000000">ListPrestationsComponent</text>
</g>
<!-- ListPrestationsComponent&#45;&gt;PrestationsModule -->
<g id="edge2" class="edge">
<title>ListPrestationsComponent&#45;&gt;PrestationsModule</title>
<path fill="none" stroke="#000000" d="M2854,-122.1554C2854,-144.3519 2854,-179 2854,-179 2854,-179 1464.8756,-179 1464.8756,-179"/>
<polygon fill="#000000" stroke="#000000" points="1464.8756,-175.5001 1454.8756,-179 1464.8756,-182.5001 1464.8756,-175.5001"/>
</g>
<!-- PrestationComponent -->
<g id="node3" class="node">
<title>PrestationComponent</title>
<polygon fill="#ffffb3" stroke="#000000" points="2753.8216,-122 2616.1784,-122 2616.1784,-86 2753.8216,-86 2753.8216,-122"/>
<text text-anchor="middle" x="2685" y="-99.8" font-family="Times,serif" font-size="14.00" fill="#000000">PrestationComponent</text>
</g>
<!-- PrestationComponent&#45;&gt;PrestationsModule -->
<g id="edge3" class="edge">
<title>PrestationComponent&#45;&gt;PrestationsModule</title>
<path fill="none" stroke="#000000" d="M2685,-122.2843C2685,-143.3211 2685,-175 2685,-175 2685,-175 1464.536,-175 1464.536,-175"/>
<polygon fill="#000000" stroke="#000000" points="1464.5361,-171.5001 1454.536,-175 1464.536,-178.5001 1464.5361,-171.5001"/>
</g>
<!-- PageAddPrestationComponent -->
<g id="node4" class="node">
<title>PageAddPrestationComponent</title>
<polygon fill="#ffffb3" stroke="#000000" points="2598.1399,-122 2409.8601,-122 2409.8601,-86 2598.1399,-86 2598.1399,-122"/>
<text text-anchor="middle" x="2504" y="-99.8" font-family="Times,serif" font-size="14.00" fill="#000000">PageAddPrestationComponent</text>
</g>
<!-- PageAddPrestationComponent&#45;&gt;PrestationsModule -->
<g id="edge4" class="edge">
<title>PageAddPrestationComponent&#45;&gt;PrestationsModule</title>
<path fill="none" stroke="#000000" d="M2504,-122.308C2504,-142.1455 2504,-171 2504,-171 2504,-171 1464.8625,-171 1464.8625,-171"/>
<polygon fill="#000000" stroke="#000000" points="1464.8626,-167.5001 1454.8625,-171 1464.8625,-174.5001 1464.8626,-167.5001"/>
</g>
<!-- AddPrestationComponent -->
<g id="node5" class="node">
<title>AddPrestationComponent</title>
<polygon fill="#ffffb3" stroke="#000000" points="2391.9284,-122 2230.0716,-122 2230.0716,-86 2391.9284,-86 2391.9284,-122"/>
<text text-anchor="middle" x="2311" y="-99.8" font-family="Times,serif" font-size="14.00" fill="#000000">AddPrestationComponent</text>
</g>
<!-- AddPrestationComponent&#45;&gt;PrestationsModule -->
<g id="edge5" class="edge">
<title>AddPrestationComponent&#45;&gt;PrestationsModule</title>
<path fill="none" stroke="#000000" d="M2311,-122.2222C2311,-140.8285 2311,-167 2311,-167 2311,-167 1464.5216,-167 1464.5216,-167"/>
<polygon fill="#000000" stroke="#000000" points="1464.5216,-163.5001 1454.5216,-167 1464.5215,-170.5001 1464.5216,-163.5001"/>
</g>
<!-- FormPrestationComponent -->
<g id="node6" class="node">
<title>FormPrestationComponent</title>
<polygon fill="#ffffb3" stroke="#000000" points="2211.6554,-122 2044.3446,-122 2044.3446,-86 2211.6554,-86 2211.6554,-122"/>
<text text-anchor="middle" x="2128" y="-99.8" font-family="Times,serif" font-size="14.00" fill="#000000">FormPrestationComponent</text>
</g>
<!-- FormPrestationComponent&#45;&gt;PrestationsModule -->
<g id="edge6" class="edge">
<title>FormPrestationComponent&#45;&gt;PrestationsModule</title>
<path fill="none" stroke="#000000" d="M2128,-122.0225C2128,-139.3734 2128,-163 2128,-163 2128,-163 1464.6908,-163 1464.6908,-163"/>
<polygon fill="#000000" stroke="#000000" points="1464.6908,-159.5001 1454.6908,-163 1464.6907,-166.5001 1464.6908,-159.5001"/>
</g>
<!-- ReactiveFormPrestationComponent -->
<g id="node7" class="node">
<title>ReactiveFormPrestationComponent</title>
<polygon fill="#ffffb3" stroke="#000000" points="2026.1315,-122 1809.8685,-122 1809.8685,-86 2026.1315,-86 2026.1315,-122"/>
<text text-anchor="middle" x="1918" y="-99.8" font-family="Times,serif" font-size="14.00" fill="#000000">ReactiveFormPrestationComponent</text>
</g>
<!-- ReactiveFormPrestationComponent&#45;&gt;PrestationsModule -->
<g id="edge7" class="edge">
<title>ReactiveFormPrestationComponent&#45;&gt;PrestationsModule</title>
<path fill="none" stroke="#000000" d="M1918,-122.0091C1918,-138.0494 1918,-159 1918,-159 1918,-159 1464.6214,-159 1464.6214,-159"/>
<polygon fill="#000000" stroke="#000000" points="1464.6214,-155.5001 1454.6214,-159 1464.6213,-162.5001 1464.6214,-155.5001"/>
</g>
<!-- DetailPrestationComponent -->
<g id="node8" class="node">
<title>DetailPrestationComponent</title>
<polygon fill="#ffffb3" stroke="#000000" points="1791.5294,-122 1620.4706,-122 1620.4706,-86 1791.5294,-86 1791.5294,-122"/>
<text text-anchor="middle" x="1706" y="-99.8" font-family="Times,serif" font-size="14.00" fill="#000000">DetailPrestationComponent</text>
</g>
<!-- DetailPrestationComponent&#45;&gt;PrestationsModule -->
<g id="edge8" class="edge">
<title>DetailPrestationComponent&#45;&gt;PrestationsModule</title>
<path fill="none" stroke="#000000" d="M1706,-122.1243C1706,-136.7832 1706,-155 1706,-155 1706,-155 1464.5267,-155 1464.5267,-155"/>
<polygon fill="#000000" stroke="#000000" points="1464.5267,-151.5001 1454.5267,-155 1464.5266,-158.5001 1464.5267,-151.5001"/>
</g>
<!-- ClientDetailPrestationComponent -->
<g id="node9" class="node">
<title>ClientDetailPrestationComponent</title>
<polygon fill="#ffffb3" stroke="#000000" points="1601.7519,-122 1396.2481,-122 1396.2481,-86 1601.7519,-86 1601.7519,-122"/>
<text text-anchor="middle" x="1499" y="-99.8" font-family="Times,serif" font-size="14.00" fill="#000000">ClientDetailPrestationComponent</text>
</g>
<!-- ClientDetailPrestationComponent&#45;&gt;PrestationsModule -->
<g id="edge9" class="edge">
<title>ClientDetailPrestationComponent&#45;&gt;PrestationsModule</title>
<path fill="none" stroke="#000000" d="M1425.3079,-122.1061C1425.3079,-122.1061 1425.3079,-140.991 1425.3079,-140.991"/>
<polygon fill="#000000" stroke="#000000" points="1421.8079,-140.9909 1425.3079,-150.991 1428.8079,-140.991 1421.8079,-140.9909"/>
</g>
<!-- PrestaClientActifComponent -->
<g id="node10" class="node">
<title>PrestaClientActifComponent</title>
<polygon fill="#ffffb3" stroke="#000000" points="1378.0266,-122 1199.9734,-122 1199.9734,-86 1378.0266,-86 1378.0266,-122"/>
<text text-anchor="middle" x="1289" y="-99.8" font-family="Times,serif" font-size="14.00" fill="#000000">PrestaClientActifComponent</text>
</g>
<!-- PrestaClientActifComponent&#45;&gt;PrestationsModule -->
<g id="edge10" class="edge">
<title>PrestaClientActifComponent&#45;&gt;PrestationsModule</title>
<path fill="none" stroke="#000000" d="M1355.8857,-122.1061C1355.8857,-122.1061 1355.8857,-140.991 1355.8857,-140.991"/>
<polygon fill="#000000" stroke="#000000" points="1352.3858,-140.9909 1355.8857,-150.991 1359.3858,-140.991 1352.3858,-140.9909"/>
</g>
<!-- PageEditComponent -->
<g id="node11" class="node">
<title>PageEditComponent</title>
<polygon fill="#ffffb3" stroke="#000000" points="1181.8781,-122 1050.1219,-122 1050.1219,-86 1181.8781,-86 1181.8781,-122"/>
<text text-anchor="middle" x="1116" y="-99.8" font-family="Times,serif" font-size="14.00" fill="#000000">PageEditComponent</text>
</g>
<!-- PageEditComponent&#45;&gt;PrestationsModule -->
<g id="edge11" class="edge">
<title>PageEditComponent&#45;&gt;PrestationsModule</title>
<path fill="none" stroke="#000000" d="M1116,-122.1243C1116,-136.7832 1116,-155 1116,-155 1116,-155 1323.3352,-155 1323.3352,-155"/>
<polygon fill="#000000" stroke="#000000" points="1323.3353,-158.5001 1333.3352,-155 1323.3352,-151.5001 1323.3353,-158.5001"/>
</g>
<!-- EditPrestationComponent -->
<g id="node12" class="node">
<title>EditPrestationComponent</title>
<polygon fill="#ffffb3" stroke="#000000" points="1032.1554,-122 871.8446,-122 871.8446,-86 1032.1554,-86 1032.1554,-122"/>
<text text-anchor="middle" x="952" y="-99.8" font-family="Times,serif" font-size="14.00" fill="#000000">EditPrestationComponent</text>
</g>
<!-- EditPrestationComponent&#45;&gt;PrestationsModule -->
<g id="edge12" class="edge">
<title>EditPrestationComponent&#45;&gt;PrestationsModule</title>
<path fill="none" stroke="#000000" d="M952,-122.0091C952,-138.0494 952,-159 952,-159 952,-159 1323.4686,-159 1323.4686,-159"/>
<polygon fill="#000000" stroke="#000000" points="1323.4686,-162.5001 1333.4686,-159 1323.4685,-155.5001 1323.4686,-162.5001"/>
</g>
<!-- PrestaClientActifComponent  -->
<g id="node20" class="node">
<title>PrestaClientActifComponent </title>
<polygon fill="#fb8072" stroke="#000000" points="1485.026,-252 1302.974,-252 1302.974,-216 1485.026,-216 1485.026,-252"/>
<text text-anchor="middle" x="1394" y="-229.8" font-family="Times,serif" font-size="14.00" fill="#000000">PrestaClientActifComponent </text>
</g>
<!-- PrestationsModule&#45;&gt;PrestaClientActifComponent  -->
<g id="edge19" class="edge">
<title>PrestationsModule&#45;&gt;PrestaClientActifComponent </title>
<path fill="none" stroke="#000000" stroke-dasharray="5,2" d="M1394,-187.1061C1394,-187.1061 1394,-205.991 1394,-205.991"/>
<polygon fill="#000000" stroke="#000000" points="1390.5001,-205.9909 1394,-215.991 1397.5001,-205.991 1390.5001,-205.9909"/>
</g>
<!-- CommonModule -->
<g id="node14" class="node">
<title>CommonModule</title>
<polygon fill="#8dd3c7" stroke="#000000" points="847.6681,-122 844.6681,-126 823.6681,-126 820.6681,-122 736.3319,-122 736.3319,-86 847.6681,-86 847.6681,-122"/>
<text text-anchor="middle" x="792" y="-99.8" font-family="Times,serif" font-size="14.00" fill="#000000">CommonModule</text>
</g>
<!-- CommonModule&#45;&gt;PrestationsModule -->
<g id="edge13" class="edge">
<title>CommonModule&#45;&gt;PrestationsModule</title>
<path fill="none" stroke="#000000" d="M792,-122.0225C792,-139.3734 792,-163 792,-163 792,-163 1323.2431,-163 1323.2431,-163"/>
<polygon fill="#000000" stroke="#000000" points="1323.2432,-166.5001 1333.2431,-163 1323.2431,-159.5001 1323.2432,-166.5001"/>
</g>
<!-- PrestationsRoutingModule -->
<g id="node15" class="node">
<title>PrestationsRoutingModule</title>
<polygon fill="#8dd3c7" stroke="#000000" points="718.101,-122 715.101,-126 694.101,-126 691.101,-122 551.899,-122 551.899,-86 718.101,-86 718.101,-122"/>
<text text-anchor="middle" x="635" y="-99.8" font-family="Times,serif" font-size="14.00" fill="#000000">PrestationsRoutingModule</text>
</g>
<!-- PrestationsRoutingModule&#45;&gt;PrestationsModule -->
<g id="edge14" class="edge">
<title>PrestationsRoutingModule&#45;&gt;PrestationsModule</title>
<path fill="none" stroke="#000000" d="M635,-122.2222C635,-140.8285 635,-167 635,-167 635,-167 1323.4898,-167 1323.4898,-167"/>
<polygon fill="#000000" stroke="#000000" points="1323.4899,-170.5001 1333.4898,-167 1323.4898,-163.5001 1323.4899,-170.5001"/>
</g>
<!-- SharedModule -->
<g id="node16" class="node">
<title>SharedModule</title>
<polygon fill="#8dd3c7" stroke="#000000" points="534.4231,-122 531.4231,-126 510.4231,-126 507.4231,-122 435.5769,-122 435.5769,-86 534.4231,-86 534.4231,-122"/>
<text text-anchor="middle" x="485" y="-99.8" font-family="Times,serif" font-size="14.00" fill="#000000">SharedModule</text>
</g>
<!-- SharedModule&#45;&gt;PrestationsModule -->
<g id="edge15" class="edge">
<title>SharedModule&#45;&gt;PrestationsModule</title>
<path fill="none" stroke="#000000" d="M485,-122.308C485,-142.1455 485,-171 485,-171 485,-171 1323.3007,-171 1323.3007,-171"/>
<polygon fill="#000000" stroke="#000000" points="1323.3007,-174.5001 1333.3007,-171 1323.3006,-167.5001 1323.3007,-174.5001"/>
</g>
<!-- TemplatesModule -->
<g id="node17" class="node">
<title>TemplatesModule</title>
<polygon fill="#8dd3c7" stroke="#000000" points="417.8627,-122 414.8627,-126 393.8627,-126 390.8627,-122 300.1373,-122 300.1373,-86 417.8627,-86 417.8627,-122"/>
<text text-anchor="middle" x="359" y="-99.8" font-family="Times,serif" font-size="14.00" fill="#000000">TemplatesModule</text>
</g>
<!-- TemplatesModule&#45;&gt;PrestationsModule -->
<g id="edge16" class="edge">
<title>TemplatesModule&#45;&gt;PrestationsModule</title>
<path fill="none" stroke="#000000" d="M359,-122.2843C359,-143.3211 359,-175 359,-175 359,-175 1323.5007,-175 1323.5007,-175"/>
<polygon fill="#000000" stroke="#000000" points="1323.5008,-178.5001 1333.5007,-175 1323.5007,-171.5001 1323.5008,-178.5001"/>
</g>
<!-- FormsModule -->
<g id="node18" class="node">
<title>FormsModule</title>
<polygon fill="#8dd3c7" stroke="#000000" points="281.8288,-122 278.8288,-126 257.8288,-126 254.8288,-122 186.1712,-122 186.1712,-86 281.8288,-86 281.8288,-122"/>
<text text-anchor="middle" x="234" y="-99.8" font-family="Times,serif" font-size="14.00" fill="#000000">FormsModule</text>
</g>
<!-- FormsModule&#45;&gt;PrestationsModule -->
<g id="edge17" class="edge">
<title>FormsModule&#45;&gt;PrestationsModule</title>
<path fill="none" stroke="#000000" d="M234,-122.1554C234,-144.3519 234,-179 234,-179 234,-179 1323.2666,-179 1323.2666,-179"/>
<polygon fill="#000000" stroke="#000000" points="1323.2666,-182.5001 1333.2666,-179 1323.2666,-175.5001 1323.2666,-182.5001"/>
</g>
<!-- ReactiveFormsModule -->
<g id="node19" class="node">
<title>ReactiveFormsModule</title>
<polygon fill="#8dd3c7" stroke="#000000" points="168.3047,-122 165.3047,-126 144.3047,-126 141.3047,-122 23.6953,-122 23.6953,-86 168.3047,-86 168.3047,-122"/>
<text text-anchor="middle" x="96" y="-99.8" font-family="Times,serif" font-size="14.00" fill="#000000">ReactiveFormsModule</text>
</g>
<!-- ReactiveFormsModule&#45;&gt;PrestationsModule -->
<g id="edge18" class="edge">
<title>ReactiveFormsModule&#45;&gt;PrestationsModule</title>
<path fill="none" stroke="#000000" d="M96,-122.3228C96,-145.6602 96,-183 96,-183 96,-183 1323.1357,-183 1323.1357,-183"/>
<polygon fill="#000000" stroke="#000000" points="1323.1358,-186.5001 1333.1357,-183 1323.1357,-179.5001 1323.1358,-186.5001"/>
</g>
</g>
</svg>
