<?xml version="1.0" encoding="UTF-8" standalone="no"?>
<!DOCTYPE svg PUBLIC "-//W3C//DTD SVG 1.1//EN"
 "http://www.w3.org/Graphics/SVG/1.1/DTD/svg11.dtd">
<!-- Generated by graphviz version 2.40.1 (20161225.0304)
 -->
<!-- Title: dependencies Pages: 1 -->
<svg width="1813pt" height="211pt"
 viewBox="0.00 0.00 1813.00 211.00" xmlns="http://www.w3.org/2000/svg" xmlns:xlink="http://www.w3.org/1999/xlink">
<g id="graph0" class="graph" transform="scale(1 1) rotate(0) translate(4 207)">
<title>dependencies</title>
<polygon fill="#ffffff" stroke="transparent" points="-4,4 -4,-207 1809,-207 1809,4 -4,4"/>
<text text-anchor="start" x="881.5091" y="-42.4" font-family="sans-serif" font-weight="bold" font-size="14.00" fill="#000000">Legend</text>
<polygon fill="#ffffb3" stroke="transparent" points="668.5,-10 668.5,-30 688.5,-30 688.5,-10 668.5,-10"/>
<text text-anchor="start" x="692.129" y="-15.4" font-family="sans-serif" font-size="14.00" fill="#000000"> &#160;Declarations</text>
<polygon fill="#8dd3c7" stroke="transparent" points="781.5,-10 781.5,-30 801.5,-30 801.5,-10 781.5,-10"/>
<text text-anchor="start" x="805.2251" y="-15.4" font-family="sans-serif" font-size="14.00" fill="#000000"> &#160;Module</text>
<polygon fill="#80b1d3" stroke="transparent" points="867.5,-10 867.5,-30 887.5,-30 887.5,-10 867.5,-10"/>
<text text-anchor="start" x="891.2812" y="-15.4" font-family="sans-serif" font-size="14.00" fill="#000000"> &#160;Bootstrap</text>
<polygon fill="#fdb462" stroke="transparent" points="964.5,-10 964.5,-30 984.5,-30 984.5,-10 964.5,-10"/>
<text text-anchor="start" x="988.1732" y="-15.4" font-family="sans-serif" font-size="14.00" fill="#000000"> &#160;Providers</text>
<polygon fill="#fb8072" stroke="transparent" points="1060.5,-10 1060.5,-30 1080.5,-30 1080.5,-10 1060.5,-10"/>
<text text-anchor="start" x="1084.2258" y="-15.4" font-family="sans-serif" font-size="14.00" fill="#000000"> &#160;Exports</text>
<g id="clust1" class="cluster">
<title>cluster_PrestationsModule</title>
<polygon fill="none" stroke="#000000" stroke-dasharray="1,5" points="8,-70 8,-195 1797,-195 1797,-70 8,-70"/>
</g>
<g id="clust2" class="cluster">
<title>cluster_PrestationsModule_declarations</title>
<polygon fill="none" stroke="#000000" points="458,-78 458,-130 1789,-130 1789,-78 458,-78"/>
</g>
<g id="clust10" class="cluster">
<title>cluster_PrestationsModule_imports</title>
<polygon fill="none" stroke="#000000" points="16,-78 16,-130 450,-130 450,-78 16,-78"/>
</g>
<!-- AddPrestationComponent -->
<g id="node1" class="node">
<title>AddPrestationComponent</title>
<polygon fill="#ffffb3" stroke="#000000" points="1780.9284,-122 1619.0716,-122 1619.0716,-86 1780.9284,-86 1780.9284,-122"/>
<text text-anchor="middle" x="1700" y="-99.8" font-family="Times,serif" font-size="14.00" fill="#000000">AddPrestationComponent</text>
</g>
<!-- PrestationsModule -->
<g id="node8" class="node">
<title>PrestationsModule</title>
<polygon fill="#8dd3c7" stroke="#000000" points="915.4832,-187 912.4832,-191 891.4832,-191 888.4832,-187 794.5168,-187 794.5168,-151 915.4832,-151 915.4832,-187"/>
<text text-anchor="middle" x="855" y="-164.8" font-family="Times,serif" font-size="14.00" fill="#000000">PrestationsModule</text>
</g>
<!-- AddPrestationComponent&#45;&gt;PrestationsModule -->
<g id="edge1" class="edge">
<title>AddPrestationComponent&#45;&gt;PrestationsModule</title>
<path fill="none" stroke="#000000" d="M1700,-122.0109C1700,-144.4852 1700,-180 1700,-180 1700,-180 925.7703,-180 925.7703,-180"/>
<polygon fill="#000000" stroke="#000000" points="925.7704,-176.5001 915.7703,-180 925.7703,-183.5001 925.7704,-176.5001"/>
</g>
<!-- FormPrestationComponent -->
<g id="node2" class="node">
<title>FormPrestationComponent</title>
<polygon fill="#ffffb3" stroke="#000000" points="1600.6554,-122 1433.3446,-122 1433.3446,-86 1600.6554,-86 1600.6554,-122"/>
<text text-anchor="middle" x="1517" y="-99.8" font-family="Times,serif" font-size="14.00" fill="#000000">FormPrestationComponent</text>
</g>
<!-- FormPrestationComponent&#45;&gt;PrestationsModule -->
<g id="edge2" class="edge">
<title>FormPrestationComponent&#45;&gt;PrestationsModule</title>
<path fill="none" stroke="#000000" d="M1517,-122.1289C1517,-142.5724 1517,-173 1517,-173 1517,-173 925.503,-173 925.503,-173"/>
<polygon fill="#000000" stroke="#000000" points="925.5031,-169.5001 915.503,-173 925.503,-176.5001 925.5031,-169.5001"/>
</g>
<!-- ListPrestationsComponent -->
<g id="node3" class="node">
<title>ListPrestationsComponent</title>
<polygon fill="#ffffb3" stroke="#000000" points="1415.0448,-122 1250.9552,-122 1250.9552,-86 1415.0448,-86 1415.0448,-122"/>
<text text-anchor="middle" x="1333" y="-99.8" font-family="Times,serif" font-size="14.00" fill="#000000">ListPrestationsComponent</text>
</g>
<!-- ListPrestationsComponent&#45;&gt;PrestationsModule -->
<g id="edge3" class="edge">
<title>ListPrestationsComponent&#45;&gt;PrestationsModule</title>
<path fill="none" stroke="#000000" d="M1333,-122.2667C1333,-140.5552 1333,-166 1333,-166 1333,-166 925.539,-166 925.539,-166"/>
<polygon fill="#000000" stroke="#000000" points="925.5391,-162.5001 915.539,-166 925.539,-169.5001 925.5391,-162.5001"/>
</g>
<!-- PageAddPrestationComponent -->
<g id="node4" class="node">
<title>PageAddPrestationComponent</title>
<polygon fill="#ffffb3" stroke="#000000" points="1232.1399,-122 1043.8601,-122 1043.8601,-86 1232.1399,-86 1232.1399,-122"/>
<text text-anchor="middle" x="1138" y="-99.8" font-family="Times,serif" font-size="14.00" fill="#000000">PageAddPrestationComponent</text>
</g>
<!-- PageAddPrestationComponent&#45;&gt;PrestationsModule -->
<g id="edge4" class="edge">
<title>PageAddPrestationComponent&#45;&gt;PrestationsModule</title>
<path fill="none" stroke="#000000" d="M1138,-122.0091C1138,-138.0494 1138,-159 1138,-159 1138,-159 925.7106,-159 925.7106,-159"/>
<polygon fill="#000000" stroke="#000000" points="925.7106,-155.5001 915.7106,-159 925.7106,-162.5001 925.7106,-155.5001"/>
</g>
<!-- PagePrestationsComponent -->
<g id="node5" class="node">
<title>PagePrestationsComponent</title>
<polygon fill="#ffffb3" stroke="#000000" points="1025.9776,-122 856.0224,-122 856.0224,-86 1025.9776,-86 1025.9776,-122"/>
<text text-anchor="middle" x="941" y="-99.8" font-family="Times,serif" font-size="14.00" fill="#000000">PagePrestationsComponent</text>
</g>
<!-- PagePrestationsComponent&#45;&gt;PrestationsModule -->
<g id="edge5" class="edge">
<title>PagePrestationsComponent&#45;&gt;PrestationsModule</title>
<path fill="none" stroke="#000000" d="M885.7514,-122.1061C885.7514,-122.1061 885.7514,-140.991 885.7514,-140.991"/>
<polygon fill="#000000" stroke="#000000" points="882.2515,-140.9909 885.7514,-150.991 889.2515,-140.991 882.2515,-140.9909"/>
</g>
<!-- PrestationComponent -->
<g id="node6" class="node">
<title>PrestationComponent</title>
<polygon fill="#ffffb3" stroke="#000000" points="837.8216,-122 700.1784,-122 700.1784,-86 837.8216,-86 837.8216,-122"/>
<text text-anchor="middle" x="769" y="-99.8" font-family="Times,serif" font-size="14.00" fill="#000000">PrestationComponent</text>
</g>
<!-- PrestationComponent&#45;&gt;PrestationsModule -->
<g id="edge6" class="edge">
<title>PrestationComponent&#45;&gt;PrestationsModule</title>
<path fill="none" stroke="#000000" d="M816.0845,-122.1061C816.0845,-122.1061 816.0845,-140.991 816.0845,-140.991"/>
<polygon fill="#000000" stroke="#000000" points="812.5846,-140.9909 816.0845,-150.991 819.5846,-140.991 812.5846,-140.9909"/>
</g>
<!-- ReactiveFormPrestationComponent -->
<g id="node7" class="node">
<title>ReactiveFormPrestationComponent</title>
<polygon fill="#ffffb3" stroke="#000000" points="682.1315,-122 465.8685,-122 465.8685,-86 682.1315,-86 682.1315,-122"/>
<text text-anchor="middle" x="574" y="-99.8" font-family="Times,serif" font-size="14.00" fill="#000000">ReactiveFormPrestationComponent</text>
</g>
<!-- ReactiveFormPrestationComponent&#45;&gt;PrestationsModule -->
<g id="edge7" class="edge">
<title>ReactiveFormPrestationComponent&#45;&gt;PrestationsModule</title>
<path fill="none" stroke="#000000" d="M574,-122.0091C574,-138.0494 574,-159 574,-159 574,-159 784.3731,-159 784.3731,-159"/>
<polygon fill="#000000" stroke="#000000" points="784.3732,-162.5001 794.3731,-159 784.3731,-155.5001 784.3732,-162.5001"/>
</g>
<!-- PrestationsRoutingModule -->
<g id="node9" class="node">
<title>PrestationsRoutingModule</title>
<polygon fill="#8dd3c7" stroke="#000000" points="442.101,-122 439.101,-126 418.101,-126 415.101,-122 275.899,-122 275.899,-86 442.101,-86 442.101,-122"/>
<text text-anchor="middle" x="359" y="-99.8" font-family="Times,serif" font-size="14.00" fill="#000000">PrestationsRoutingModule</text>
</g>
<!-- PrestationsRoutingModule&#45;&gt;PrestationsModule -->
<g id="edge8" class="edge">
<title>PrestationsRoutingModule&#45;&gt;PrestationsModule</title>
<path fill="none" stroke="#000000" d="M359,-122.2667C359,-140.5552 359,-166 359,-166 359,-166 784.1807,-166 784.1807,-166"/>
<polygon fill="#000000" stroke="#000000" points="784.1807,-169.5001 794.1807,-166 784.1806,-162.5001 784.1807,-169.5001"/>
</g>
<!-- SharedModule -->
<g id="node10" class="node">
<title>SharedModule</title>
<polygon fill="#8dd3c7" stroke="#000000" points="258.4231,-122 255.4231,-126 234.4231,-126 231.4231,-122 159.5769,-122 159.5769,-86 258.4231,-86 258.4231,-122"/>
<text text-anchor="middle" x="209" y="-99.8" font-family="Times,serif" font-size="14.00" fill="#000000">SharedModule</text>
</g>
<!-- SharedModule&#45;&gt;PrestationsModule -->
<g id="edge9" class="edge">
<title>SharedModule&#45;&gt;PrestationsModule</title>
<path fill="none" stroke="#000000" d="M209,-122.1289C209,-142.5724 209,-173 209,-173 209,-173 784.5162,-173 784.5162,-173"/>
<polygon fill="#000000" stroke="#000000" points="784.5163,-176.5001 794.5162,-173 784.5162,-169.5001 784.5163,-176.5001"/>
</g>
<!-- TemplatesModule -->
<g id="node11" class="node">
<title>TemplatesModule</title>
<polygon fill="#8dd3c7" stroke="#000000" points="141.8627,-122 138.8627,-126 117.8627,-126 114.8627,-122 24.1373,-122 24.1373,-86 141.8627,-86 141.8627,-122"/>
<text text-anchor="middle" x="83" y="-99.8" font-family="Times,serif" font-size="14.00" fill="#000000">TemplatesModule</text>
</g>
<!-- TemplatesModule&#45;&gt;PrestationsModule -->
<g id="edge10" class="edge">
<title>TemplatesModule&#45;&gt;PrestationsModule</title>
<path fill="none" stroke="#000000" d="M83,-122.0109C83,-144.4852 83,-180 83,-180 83,-180 784.4225,-180 784.4225,-180"/>
<polygon fill="#000000" stroke="#000000" points="784.4225,-183.5001 794.4225,-180 784.4224,-176.5001 784.4225,-183.5001"/>
</g>
</g>
</svg>
